<?xml version="1.0" encoding="UTF-8" standalone="no"?>
<!DOCTYPE svg PUBLIC "-//W3C//DTD SVG 1.1//EN"
 "http://www.w3.org/Graphics/SVG/1.1/DTD/svg11.dtd">
<!-- Generated by graphviz version 2.43.0 (0)
 -->
<!-- Title: src/http/http2_types.h Pages: 1 -->
<!--zoomable 357 -->
<svg id="main" version="1.1" xmlns="http://www.w3.org/2000/svg" xmlns:xlink="http://www.w3.org/1999/xlink" xml:space="preserve" onload="init(evt)">
<style type="text/css"><![CDATA[
.edge:hover path { stroke: red; }
.edge:hover polygon { stroke: red; fill: red; }
]]></style>
<script type="text/javascript"><![CDATA[
var edges = document.getElementsByTagName('g');
if (edges && edges.length) {
  for (var i=0;i<edges.length;i++) {
    if (edges[i].id.substr(0,4)=='edge') {
      edges[i].setAttribute('class','edge');
    }
  }
}
]]></script>
        <defs>
                <circle id="rim" cx="0" cy="0" r="7"/>
                <circle id="rim2" cx="0" cy="0" r="3.5"/>
                <g id="zoomPlus">
                        <use xlink:href="#rim" fill="#404040">
                                <set attributeName="fill" to="#808080" begin="zoomplus.mouseover" end="zoomplus.mouseout"/>
                        </use>
                        <path d="M-4,0h8M0,-4v8" fill="none" stroke="white" stroke-width="1.5" pointer-events="none"/>
                </g>
                <g id="zoomMin">
                        <use xlink:href="#rim" fill="#404040">
                                <set attributeName="fill" to="#808080" begin="zoomminus.mouseover" end="zoomminus.mouseout"/>
                        </use>
                        <path d="M-4,0h8" fill="none" stroke="white" stroke-width="1.5" pointer-events="none"/>
                </g>
                <g id="dirArrow">
                        <path fill="none" stroke="white" stroke-width="1.5" d="M0,-3.0v7 M-2.5,-0.5L0,-3.0L2.5,-0.5"/>
                </g>
               <g id="resetDef">
                       <use xlink:href="#rim2" fill="#404040">
                               <set attributeName="fill" to="#808080" begin="reset.mouseover" end="reset.mouseout"/>
                       </use>
               </g>
        </defs>

<script type="text/javascript">
var viewWidth = 2352;
var viewHeight = 357;
var sectionId = 'dynsection-0';
</script>
<script xlink:href="svgpan.js"/>
<svg id="graph" class="graph">
<g id="viewport">
<title>src/http/http2_types.h</title>
<!-- Node1 -->
<g id="node1" class="node">
<title>Node1</title>
<g id="a_node1"><a xlink:title=" ">
<polygon fill="#999999" stroke="#666666" points="1524,-349 1401,-349 1401,-330 1524,-330 1524,-349"/>
<text text-anchor="middle" x="1462.5" y="-337" font-family="Helvetica,sans-Serif" font-size="10.00">src/http/http2_types.h</text>
</a>
</g>
</g>
<!-- Node2 -->
<g id="node2" class="node">
<title>Node2</title>
<g id="a_node2"><a xlink:href="nonstd_8h.html" target="_top" xlink:title=" ">
<polygon fill="white" stroke="#666666" points="1247.5,-74 1157.5,-74 1157.5,-55 1247.5,-55 1247.5,-74"/>
<text text-anchor="middle" x="1202.5" y="-62" font-family="Helvetica,sans-Serif" font-size="10.00">ccf/ds/nonstd.h</text>
</a>
</g>
</g>
<!-- Node1&#45;&gt;Node2 -->
<g id="edge1" class="edge">
<title>Node1&#45;&gt;Node2</title>
<path fill="none" stroke="#63b8ff" d="M1400.88,-338.43C1332.27,-334.44 1226.33,-315.5 1190.5,-239 1166.22,-187.17 1184.48,-116.96 1195.59,-84.01"/>
<polygon fill="#63b8ff" stroke="#63b8ff" points="1198.97,-84.94 1199.01,-74.35 1192.38,-82.61 1198.97,-84.94"/>
</g>
<!-- Node6 -->
<g id="node6" class="node">
<title>Node6</title>
<g id="a_node6"><a xlink:title=" ">
<polygon fill="#e0e0e0" stroke="#999999" points="1326.5,-19 1282.5,-19 1282.5,0 1326.5,0 1326.5,-19"/>
<text text-anchor="middle" x="1304.5" y="-7" font-family="Helvetica,sans-Serif" font-size="10.00">string</text>
</a>
</g>
</g>
<!-- Node1&#45;&gt;Node6 -->
<g id="edge82" class="edge">
<title>Node1&#45;&gt;Node6</title>
<path fill="none" stroke="#63b8ff" d="M1524.04,-332.33C1624.71,-320.5 1813.5,-290.35 1813.5,-230.5 1813.5,-230.5 1813.5,-230.5 1813.5,-118.5 1813.5,-89.04 1817.31,-73.64 1794.5,-55 1776.72,-40.46 1442.84,-18.94 1336.65,-12.43"/>
<polygon fill="#63b8ff" stroke="#63b8ff" points="1336.73,-8.93 1326.53,-11.81 1336.3,-15.92 1336.73,-8.93"/>
</g>
<!-- Node9 -->
<g id="node9" class="node">
<title>Node9</title>
<g id="a_node9"><a xlink:title=" ">
<polygon fill="#e0e0e0" stroke="#999999" points="2030,-19 1983,-19 1983,0 2030,0 2030,-19"/>
<text text-anchor="middle" x="2006.5" y="-7" font-family="Helvetica,sans-Serif" font-size="10.00">vector</text>
</a>
</g>
</g>
<!-- Node1&#45;&gt;Node9 -->
<g id="edge83" class="edge">
<title>Node1&#45;&gt;Node9</title>
<path fill="none" stroke="#63b8ff" d="M1524,-335.54C1696.01,-326.45 2169.5,-295.53 2169.5,-230.5 2169.5,-230.5 2169.5,-230.5 2169.5,-118.5 2169.5,-56.99 2087.83,-28.45 2040.11,-17.02"/>
<polygon fill="#63b8ff" stroke="#63b8ff" points="2040.73,-13.57 2030.2,-14.77 2039.18,-20.4 2040.73,-13.57"/>
</g>
<!-- Node10 -->
<g id="node10" class="node">
<title>Node10</title>
<g id="a_node10"><a xlink:href="http__configuration_8h.html" target="_top" xlink:title=" ">
<polygon fill="white" stroke="#666666" points="880,-239 749,-239 749,-220 880,-220 880,-239"/>
<text text-anchor="middle" x="814.5" y="-227" font-family="Helvetica,sans-Serif" font-size="10.00">ccf/http_configuration.h</text>
</a>
</g>
</g>
<!-- Node1&#45;&gt;Node10 -->
<g id="edge9" class="edge">
<title>Node1&#45;&gt;Node10</title>
<path fill="none" stroke="#63b8ff" d="M1400.84,-334.5C1321.26,-328.7 1178.73,-316.15 1058.5,-294 984.31,-280.33 899.42,-256.29 851.86,-242.03"/>
<polygon fill="#63b8ff" stroke="#63b8ff" points="852.6,-238.6 842.02,-239.06 850.58,-245.3 852.6,-238.6"/>
</g>
<!-- Node14 -->
<g id="node14" class="node">
<title>Node14</title>
<g id="a_node14"><a xlink:title=" ">
<polygon fill="#e0e0e0" stroke="#999999" points="70.5,-74 14.5,-74 14.5,-55 70.5,-55 70.5,-74"/>
<text text-anchor="middle" x="42.5" y="-62" font-family="Helvetica,sans-Serif" font-size="10.00">optional</text>
</a>
</g>
</g>
<!-- Node1&#45;&gt;Node14 -->
<g id="edge81" class="edge">
<title>Node1&#45;&gt;Node14</title>
<path fill="none" stroke="#63b8ff" d="M1400.97,-336.95C1133.17,-329.83 82.5,-297.6 82.5,-230.5 82.5,-230.5 82.5,-230.5 82.5,-173.5 82.5,-139.67 65.03,-103.38 53.18,-82.66"/>
<polygon fill="#63b8ff" stroke="#63b8ff" points="56.18,-80.86 48.06,-74.06 50.16,-84.44 56.18,-80.86"/>
</g>
<!-- Node31 -->
<g id="node31" class="node">
<title>Node31</title>
<g id="a_node31"><a xlink:href="http__header__map_8h.html" target="_top" xlink:title=" ">
<polygon fill="white" stroke="#666666" points="1101.5,-74 973.5,-74 973.5,-55 1101.5,-55 1101.5,-74"/>
<text text-anchor="middle" x="1037.5" y="-62" font-family="Helvetica,sans-Serif" font-size="10.00">ccf/http_header_map.h</text>
</a>
</g>
</g>
<!-- Node1&#45;&gt;Node31 -->
<g id="edge45" class="edge">
<title>Node1&#45;&gt;Node31</title>
<path fill="none" stroke="#63b8ff" d="M1400.7,-334.2C1290.73,-324.83 1072.5,-297.77 1072.5,-230.5 1072.5,-230.5 1072.5,-230.5 1072.5,-173.5 1072.5,-140.3 1057.35,-104.03 1046.98,-83.11"/>
<polygon fill="#63b8ff" stroke="#63b8ff" points="1050.06,-81.44 1042.37,-74.15 1043.84,-84.64 1050.06,-81.44"/>
</g>
<!-- Node32 -->
<g id="node32" class="node">
<title>Node32</title>
<g id="a_node32"><a xlink:href="http__responder_8h.html" target="_top" xlink:title=" ">
<polygon fill="white" stroke="#666666" points="1381.5,-294 1265.5,-294 1265.5,-275 1381.5,-275 1381.5,-294"/>
<text text-anchor="middle" x="1323.5" y="-282" font-family="Helvetica,sans-Serif" font-size="10.00">ccf/http_responder.h</text>
</a>
</g>
</g>
<!-- Node1&#45;&gt;Node32 -->
<g id="edge48" class="edge">
<title>Node1&#45;&gt;Node32</title>
<path fill="none" stroke="#63b8ff" d="M1440.17,-329.98C1417.3,-321.27 1381.54,-307.63 1355.64,-297.75"/>
<polygon fill="#63b8ff" stroke="#63b8ff" points="1356.83,-294.46 1346.24,-294.17 1354.34,-301 1356.83,-294.46"/>
</g>
<!-- Node35 -->
<g id="node35" class="node">
<title>Node35</title>
<g id="a_node35"><a xlink:href="http__status_8h.html" target="_top" xlink:title=" ">
<polygon fill="white" stroke="#666666" points="1557.5,-74 1459.5,-74 1459.5,-55 1557.5,-55 1557.5,-74"/>
<text text-anchor="middle" x="1508.5" y="-62" font-family="Helvetica,sans-Serif" font-size="10.00">ccf/http_status.h</text>
</a>
</g>
</g>
<!-- Node1&#45;&gt;Node35 -->
<g id="edge55" class="edge">
<title>Node1&#45;&gt;Node35</title>
<path fill="none" stroke="#63b8ff" d="M1469.09,-329.8C1481.81,-312.1 1508.5,-270.24 1508.5,-230.5 1508.5,-230.5 1508.5,-230.5 1508.5,-173.5 1508.5,-142.19 1508.5,-105.77 1508.5,-84.23"/>
<polygon fill="#63b8ff" stroke="#63b8ff" points="1512,-84.18 1508.5,-74.18 1505,-84.18 1512,-84.18"/>
</g>
<!-- Node37 -->
<g id="node37" class="node">
<title>Node37</title>
<g id="a_node37"><a xlink:href="rest__verb_8h.html" target="_top" xlink:title=" ">
<polygon fill="white" stroke="#666666" points="1931,-184 1842,-184 1842,-165 1931,-165 1931,-184"/>
<text text-anchor="middle" x="1886.5" y="-172" font-family="Helvetica,sans-Serif" font-size="10.00">ccf/rest_verb.h</text>
</a>
</g>
</g>
<!-- Node1&#45;&gt;Node37 -->
<g id="edge56" class="edge">
<title>Node1&#45;&gt;Node37</title>
<path fill="none" stroke="#63b8ff" d="M1524.09,-337.91C1615.14,-335.89 1779.99,-327.57 1827.5,-294 1861.33,-270.1 1876.77,-221.11 1882.95,-194.21"/>
<polygon fill="#63b8ff" stroke="#63b8ff" points="1886.42,-194.67 1885.05,-184.17 1879.57,-193.24 1886.42,-194.67"/>
</g>
<!-- Node44 -->
<g id="node44" class="node">
<title>Node44</title>
<g id="a_node44"><a xlink:href="http__builder_8h.html" target="_top" xlink:title=" ">
<polygon fill="white" stroke="#666666" points="1336,-129 1253,-129 1253,-110 1336,-110 1336,-129"/>
<text text-anchor="middle" x="1294.5" y="-117" font-family="Helvetica,sans-Serif" font-size="10.00">http_builder.h</text>
</a>
</g>
</g>
<!-- Node1&#45;&gt;Node44 -->
<g id="edge69" class="edge">
<title>Node1&#45;&gt;Node44</title>
<path fill="none" stroke="#63b8ff" d="M1457.95,-329.77C1447.25,-309.57 1419.17,-258.45 1389.5,-220 1364.88,-188.09 1331.44,-155.02 1311.5,-136.18"/>
<polygon fill="#63b8ff" stroke="#63b8ff" points="1313.78,-133.52 1304.09,-129.24 1309,-138.63 1313.78,-133.52"/>
</g>
<!-- Node45 -->
<g id="node45" class="node">
<title>Node45</title>
<g id="a_node45"><a xlink:title=" ">
<polygon fill="#e0e0e0" stroke="#999999" points="2229.5,-294 2197.5,-294 2197.5,-275 2229.5,-275 2229.5,-294"/>
<text text-anchor="middle" x="2213.5" y="-282" font-family="Helvetica,sans-Serif" font-size="10.00">list</text>
</a>
</g>
</g>
<!-- Node1&#45;&gt;Node45 -->
<g id="edge79" class="edge">
<title>Node1&#45;&gt;Node45</title>
<path fill="none" stroke="#63b8ff" d="M1524.26,-339.12C1649.53,-339.42 1942.12,-335.15 2183.5,-294 2184.79,-293.78 2186.11,-293.53 2187.43,-293.25"/>
<polygon fill="#63b8ff" stroke="#63b8ff" points="2188.6,-296.56 2197.45,-290.73 2186.9,-289.77 2188.6,-296.56"/>
</g>
<!-- Node46 -->
<g id="node46" class="node">
<title>Node46</title>
<g id="a_node46"><a xlink:title=" ">
<polygon fill="#e0e0e0" stroke="#999999" points="2305.5,-294 2247.5,-294 2247.5,-275 2305.5,-275 2305.5,-294"/>
<text text-anchor="middle" x="2276.5" y="-282" font-family="Helvetica,sans-Serif" font-size="10.00">memory</text>
</a>
</g>
</g>
<!-- Node1&#45;&gt;Node46 -->
<g id="edge80" class="edge">
<title>Node1&#45;&gt;Node46</title>
<path fill="none" stroke="#63b8ff" d="M1524.2,-338.36C1654.39,-337.34 1966.8,-331 2237.13,-293.95"/>
<polygon fill="#63b8ff" stroke="#63b8ff" points="2237.7,-297.41 2247.13,-292.57 2236.74,-290.47 2237.7,-297.41"/>
</g>
<!-- Node3 -->
<g id="node3" class="node">
<title>Node3</title>
<g id="a_node3"><a xlink:title=" ">
<polygon fill="#e0e0e0" stroke="#999999" points="1264.5,-19 1200.5,-19 1200.5,0 1264.5,0 1264.5,-19"/>
<text text-anchor="middle" x="1232.5" y="-7" font-family="Helvetica,sans-Serif" font-size="10.00">algorithm</text>
</a>
</g>
</g>
<!-- Node2&#45;&gt;Node3 -->
<g id="edge2" class="edge">
<title>Node2&#45;&gt;Node3</title>
<path fill="none" stroke="#63b8ff" d="M1207.45,-54.75C1211.56,-47.49 1217.53,-36.95 1222.6,-27.98"/>
<polygon fill="#63b8ff" stroke="#63b8ff" points="1225.76,-29.52 1227.64,-19.09 1219.67,-26.07 1225.76,-29.52"/>
</g>
<!-- Node4 -->
<g id="node4" class="node">
<title>Node4</title>
<g id="a_node4"><a xlink:title=" ">
<polygon fill="#e0e0e0" stroke="#999999" points="1838.5,-19 1796.5,-19 1796.5,0 1838.5,0 1838.5,-19"/>
<text text-anchor="middle" x="1817.5" y="-7" font-family="Helvetica,sans-Serif" font-size="10.00">array</text>
</a>
</g>
</g>
<!-- Node2&#45;&gt;Node4 -->
<g id="edge3" class="edge">
<title>Node2&#45;&gt;Node4</title>
<path fill="none" stroke="#63b8ff" d="M1247.9,-59.51C1264.17,-58.08 1282.66,-56.46 1299.5,-55 1484.1,-38.98 1705.73,-20.04 1786.3,-13.16"/>
<polygon fill="#63b8ff" stroke="#63b8ff" points="1786.62,-16.65 1796.28,-12.31 1786.02,-9.67 1786.62,-16.65"/>
</g>
<!-- Node5 -->
<g id="node5" class="node">
<title>Node5</title>
<g id="a_node5"><a xlink:title=" ">
<polygon fill="#e0e0e0" stroke="#999999" points="1182,-19 1133,-19 1133,0 1182,0 1182,-19"/>
<text text-anchor="middle" x="1157.5" y="-7" font-family="Helvetica,sans-Serif" font-size="10.00">cctype</text>
</a>
</g>
</g>
<!-- Node2&#45;&gt;Node5 -->
<g id="edge4" class="edge">
<title>Node2&#45;&gt;Node5</title>
<path fill="none" stroke="#63b8ff" d="M1195.07,-54.75C1188.65,-47.18 1179.19,-36.05 1171.38,-26.84"/>
<polygon fill="#63b8ff" stroke="#63b8ff" points="1173.93,-24.45 1164.79,-19.09 1168.6,-28.98 1173.93,-24.45"/>
</g>
<!-- Node2&#45;&gt;Node6 -->
<g id="edge5" class="edge">
<title>Node2&#45;&gt;Node6</title>
<path fill="none" stroke="#63b8ff" d="M1218.89,-54.98C1235.07,-46.57 1260.07,-33.59 1278.88,-23.81"/>
<polygon fill="#63b8ff" stroke="#63b8ff" points="1280.55,-26.89 1287.81,-19.17 1277.33,-20.68 1280.55,-26.89"/>
</g>
<!-- Node7 -->
<g id="node7" class="node">
<title>Node7</title>
<g id="a_node7"><a xlink:title=" ">
<polygon fill="#e0e0e0" stroke="#999999" points="1558,-19 1485,-19 1485,0 1558,0 1558,-19"/>
<text text-anchor="middle" x="1521.5" y="-7" font-family="Helvetica,sans-Serif" font-size="10.00">string_view</text>
</a>
</g>
</g>
<!-- Node2&#45;&gt;Node7 -->
<g id="edge6" class="edge">
<title>Node2&#45;&gt;Node7</title>
<path fill="none" stroke="#63b8ff" d="M1247.53,-56.02C1307.6,-46.04 1413.45,-28.45 1474.5,-18.31"/>
<polygon fill="#63b8ff" stroke="#63b8ff" points="1475.34,-21.72 1484.63,-16.63 1474.19,-14.81 1475.34,-21.72"/>
</g>
<!-- Node8 -->
<g id="node8" class="node">
<title>Node8</title>
<g id="a_node8"><a xlink:title=" ">
<polygon fill="#e0e0e0" stroke="#999999" points="1115,-19 1046,-19 1046,0 1115,0 1115,-19"/>
<text text-anchor="middle" x="1080.5" y="-7" font-family="Helvetica,sans-Serif" font-size="10.00">type_traits</text>
</a>
</g>
</g>
<!-- Node2&#45;&gt;Node8 -->
<g id="edge7" class="edge">
<title>Node2&#45;&gt;Node8</title>
<path fill="none" stroke="#63b8ff" d="M1182.9,-54.98C1163.18,-46.42 1132.55,-33.11 1109.92,-23.28"/>
<polygon fill="#63b8ff" stroke="#63b8ff" points="1111.02,-19.94 1100.46,-19.17 1108.24,-26.37 1111.02,-19.94"/>
</g>
<!-- Node2&#45;&gt;Node9 -->
<g id="edge8" class="edge">
<title>Node2&#45;&gt;Node9</title>
<path fill="none" stroke="#63b8ff" d="M1247.88,-59.29C1264.15,-57.84 1282.64,-56.27 1299.5,-55 1558.34,-35.52 1870.94,-17.91 1972.72,-12.33"/>
<polygon fill="#63b8ff" stroke="#63b8ff" points="1973.2,-15.81 1982.99,-11.77 1972.81,-8.82 1973.2,-15.81"/>
</g>
<!-- Node11 -->
<g id="node11" class="node">
<title>Node11</title>
<g id="a_node11"><a xlink:href="json_8h.html" target="_top" xlink:title=" ">
<polygon fill="white" stroke="#666666" points="949,-184 872,-184 872,-165 949,-165 949,-184"/>
<text text-anchor="middle" x="910.5" y="-172" font-family="Helvetica,sans-Serif" font-size="10.00">ccf/ds/json.h</text>
</a>
</g>
</g>
<!-- Node10&#45;&gt;Node11 -->
<g id="edge10" class="edge">
<title>Node10&#45;&gt;Node11</title>
<path fill="none" stroke="#63b8ff" d="M829.92,-219.98C844.95,-211.69 868.04,-198.94 885.66,-189.22"/>
<polygon fill="#63b8ff" stroke="#63b8ff" points="887.73,-192.07 894.8,-184.17 884.35,-185.94 887.73,-192.07"/>
</g>
<!-- Node10&#45;&gt;Node14 -->
<g id="edge44" class="edge">
<title>Node10&#45;&gt;Node14</title>
<path fill="none" stroke="#63b8ff" d="M772.59,-219.98C661.58,-197.33 350.51,-133.49 80.75,-74.25"/>
<polygon fill="#63b8ff" stroke="#63b8ff" points="81.29,-70.78 70.77,-72.05 79.78,-77.62 81.29,-70.78"/>
</g>
<!-- Node18 -->
<g id="node18" class="node">
<title>Node18</title>
<g id="a_node18"><a xlink:href="unit__strings_8h.html" target="_top" xlink:title=" ">
<polygon fill="white" stroke="#666666" points="802.5,-184 688.5,-184 688.5,-165 802.5,-165 802.5,-184"/>
<text text-anchor="middle" x="745.5" y="-172" font-family="Helvetica,sans-Serif" font-size="10.00">ccf/ds/unit_strings.h</text>
</a>
</g>
</g>
<!-- Node10&#45;&gt;Node18 -->
<g id="edge21" class="edge">
<title>Node10&#45;&gt;Node18</title>
<path fill="none" stroke="#63b8ff" d="M803.41,-219.98C793.01,-212 777.24,-199.88 764.78,-190.31"/>
<polygon fill="#63b8ff" stroke="#63b8ff" points="766.85,-187.49 756.79,-184.17 762.59,-193.04 766.85,-187.49"/>
</g>
<!-- Node12 -->
<g id="node12" class="node">
<title>Node12</title>
<g id="a_node12"><a xlink:href="include_2ccf_2crypto_2base64_8h.html" target="_top" xlink:title=" ">
<polygon fill="white" stroke="#666666" points="1785.5,-74 1673.5,-74 1673.5,-55 1785.5,-55 1785.5,-74"/>
<text text-anchor="middle" x="1729.5" y="-62" font-family="Helvetica,sans-Serif" font-size="10.00">ccf/crypto/base64.h</text>
</a>
</g>
</g>
<!-- Node11&#45;&gt;Node12 -->
<g id="edge11" class="edge">
<title>Node11&#45;&gt;Node12</title>
<path fill="none" stroke="#63b8ff" d="M949.2,-170.33C1025.16,-163.94 1199.04,-148.43 1344.5,-129 1461.86,-113.32 1598.43,-89.45 1673.27,-75.88"/>
<polygon fill="#63b8ff" stroke="#63b8ff" points="1674.2,-79.27 1683.41,-74.04 1672.95,-72.39 1674.2,-79.27"/>
</g>
<!-- Node13 -->
<g id="node13" class="node">
<title>Node13</title>
<g id="a_node13"><a xlink:href="include_2ccf_2ds_2json__schema_8h.html" target="_top" xlink:title=" ">
<polygon fill="white" stroke="#666666" points="895,-129 774,-129 774,-110 895,-110 895,-129"/>
<text text-anchor="middle" x="834.5" y="-117" font-family="Helvetica,sans-Serif" font-size="10.00">ccf/ds/json_schema.h</text>
</a>
</g>
</g>
<!-- Node11&#45;&gt;Node13 -->
<g id="edge14" class="edge">
<title>Node11&#45;&gt;Node13</title>
<path fill="none" stroke="#63b8ff" d="M898.29,-164.98C886.72,-156.92 869.12,-144.65 855.34,-135.03"/>
<polygon fill="#63b8ff" stroke="#63b8ff" points="857.14,-132.02 846.93,-129.17 853.13,-137.76 857.14,-132.02"/>
</g>
<!-- Node15 -->
<g id="node15" class="node">
<title>Node15</title>
<g id="a_node15"><a xlink:title=" ">
<polygon fill="#e0e0e0" stroke="#999999" points="703,-19 624,-19 624,0 703,0 703,-19"/>
<text text-anchor="middle" x="663.5" y="-7" font-family="Helvetica,sans-Serif" font-size="10.00">fmt/format.h</text>
</a>
</g>
</g>
<!-- Node11&#45;&gt;Node15 -->
<g id="edge19" class="edge">
<title>Node11&#45;&gt;Node15</title>
<path fill="none" stroke="#63b8ff" d="M911.58,-164.65C912.72,-151.75 913.2,-127.45 903.5,-110 884.28,-75.42 868.94,-72.6 833.5,-55 795.33,-36.04 748.19,-24.52 713.24,-17.97"/>
<polygon fill="#63b8ff" stroke="#63b8ff" points="713.73,-14.5 703.26,-16.17 712.48,-21.39 713.73,-14.5"/>
</g>
<!-- Node17 -->
<g id="node17" class="node">
<title>Node17</title>
<g id="a_node17"><a xlink:title=" ">
<polygon fill="#e0e0e0" stroke="#999999" points="675.5,-74 619.5,-74 619.5,-55 675.5,-55 675.5,-74"/>
<text text-anchor="middle" x="647.5" y="-62" font-family="Helvetica,sans-Serif" font-size="10.00">sstream</text>
</a>
</g>
</g>
<!-- Node11&#45;&gt;Node17 -->
<g id="edge20" class="edge">
<title>Node11&#45;&gt;Node17</title>
<path fill="none" stroke="#63b8ff" d="M875.59,-164.98C845.57,-157.16 801.41,-144.45 764.5,-129 730.21,-114.64 692.83,-93.26 669.77,-79.35"/>
<polygon fill="#63b8ff" stroke="#63b8ff" points="671.46,-76.28 661.1,-74.06 667.81,-82.26 671.46,-76.28"/>
</g>
<!-- Node12&#45;&gt;Node6 -->
<g id="edge12" class="edge">
<title>Node12&#45;&gt;Node6</title>
<path fill="none" stroke="#63b8ff" d="M1673.48,-56.15C1670.44,-55.76 1667.44,-55.37 1664.5,-55 1543.73,-39.64 1400.07,-22.1 1336.96,-14.43"/>
<polygon fill="#63b8ff" stroke="#63b8ff" points="1337.18,-10.94 1326.83,-13.21 1336.34,-17.89 1337.18,-10.94"/>
</g>
<!-- Node12&#45;&gt;Node9 -->
<g id="edge13" class="edge">
<title>Node12&#45;&gt;Node9</title>
<path fill="none" stroke="#63b8ff" d="M1774,-54.98C1829.55,-44.36 1923.27,-26.43 1973.06,-16.9"/>
<polygon fill="#63b8ff" stroke="#63b8ff" points="1973.83,-20.31 1982.99,-15 1972.51,-13.44 1973.83,-20.31"/>
</g>
<!-- Node13&#45;&gt;Node2 -->
<g id="edge15" class="edge">
<title>Node13&#45;&gt;Node2</title>
<path fill="none" stroke="#63b8ff" d="M893.63,-109.98C963.58,-99.91 1079.14,-83.27 1147.33,-73.45"/>
<polygon fill="#63b8ff" stroke="#63b8ff" points="1148.04,-76.88 1157.44,-71.99 1147.04,-69.95 1148.04,-76.88"/>
</g>
<!-- Node13&#45;&gt;Node14 -->
<g id="edge16" class="edge">
<title>Node13&#45;&gt;Node14</title>
<path fill="none" stroke="#63b8ff" d="M773.83,-114.99C608.17,-105.4 155.98,-79.17 80.87,-73.41"/>
<polygon fill="#63b8ff" stroke="#63b8ff" points="80.97,-69.9 70.69,-72.49 80.33,-76.87 80.97,-69.9"/>
</g>
<!-- Node13&#45;&gt;Node15 -->
<g id="edge17" class="edge">
<title>Node13&#45;&gt;Node15</title>
<path fill="none" stroke="#63b8ff" d="M833.94,-109.78C832.59,-96.16 828,-69.85 812.5,-55 785.93,-29.56 745.44,-18.59 713.37,-13.9"/>
<polygon fill="#63b8ff" stroke="#63b8ff" points="713.64,-10.41 703.28,-12.59 712.74,-17.35 713.64,-10.41"/>
</g>
<!-- Node16 -->
<g id="node16" class="node">
<title>Node16</title>
<g id="a_node16"><a xlink:title=" ">
<polygon fill="#e0e0e0" stroke="#999999" points="803.5,-74 693.5,-74 693.5,-55 803.5,-55 803.5,-74"/>
<text text-anchor="middle" x="748.5" y="-62" font-family="Helvetica,sans-Serif" font-size="10.00">nlohmann/json.hpp</text>
</a>
</g>
</g>
<!-- Node13&#45;&gt;Node16 -->
<g id="edge18" class="edge">
<title>Node13&#45;&gt;Node16</title>
<path fill="none" stroke="#63b8ff" d="M820.68,-109.98C807.35,-101.77 786.92,-89.18 771.19,-79.49"/>
<polygon fill="#63b8ff" stroke="#63b8ff" points="772.92,-76.44 762.57,-74.17 769.25,-82.4 772.92,-76.44"/>
</g>
<!-- Node18&#45;&gt;Node2 -->
<g id="edge39" class="edge">
<title>Node18&#45;&gt;Node2</title>
<path fill="none" stroke="#63b8ff" d="M782.69,-164.97C821.38,-156.07 883.71,-141.68 937.5,-129 1014.77,-110.79 1104.61,-89.17 1157.33,-76.43"/>
<polygon fill="#63b8ff" stroke="#63b8ff" points="1158.47,-79.76 1167.37,-74.01 1156.83,-72.95 1158.47,-79.76"/>
</g>
<!-- Node18&#45;&gt;Node6 -->
<g id="edge43" class="edge">
<title>Node18&#45;&gt;Node6</title>
<path fill="none" stroke="#63b8ff" d="M802.71,-165.98C834.37,-159.79 873.31,-148.69 903.5,-129 939.2,-105.71 927.07,-75.39 964.5,-55 1083.08,9.58 1135.3,-42.78 1272.24,-18.89"/>
<polygon fill="#63b8ff" stroke="#63b8ff" points="1273.05,-22.3 1282.24,-17.04 1271.77,-15.42 1273.05,-22.3"/>
</g>
<!-- Node18&#45;&gt;Node16 -->
<g id="edge42" class="edge">
<title>Node18&#45;&gt;Node16</title>
<path fill="none" stroke="#63b8ff" d="M745.75,-164.66C746.23,-147.17 747.32,-107.8 747.98,-84.27"/>
<polygon fill="#63b8ff" stroke="#63b8ff" points="751.48,-84.25 748.26,-74.16 744.48,-84.06 751.48,-84.25"/>
</g>
<!-- Node19 -->
<g id="node19" class="node">
<title>Node19</title>
<g id="a_node19"><a xlink:href="logger_8h.html" target="_top" xlink:title=" ">
<polygon fill="white" stroke="#666666" points="492,-129 405,-129 405,-110 492,-110 492,-129"/>
<text text-anchor="middle" x="448.5" y="-117" font-family="Helvetica,sans-Serif" font-size="10.00">ccf/ds/logger.h</text>
</a>
</g>
</g>
<!-- Node18&#45;&gt;Node19 -->
<g id="edge22" class="edge">
<title>Node18&#45;&gt;Node19</title>
<path fill="none" stroke="#63b8ff" d="M697.78,-164.98C644.37,-155.45 558.03,-140.05 502.27,-130.1"/>
<polygon fill="#63b8ff" stroke="#63b8ff" points="502.69,-126.61 492.23,-128.3 501.46,-133.51 502.69,-126.61"/>
</g>
<!-- Node29 -->
<g id="node29" class="node">
<title>Node29</title>
<g id="a_node29"><a xlink:title=" ">
<polygon fill="#e0e0e0" stroke="#999999" points="614,-129 553,-129 553,-110 614,-110 614,-129"/>
<text text-anchor="middle" x="583.5" y="-117" font-family="Helvetica,sans-Serif" font-size="10.00">charconv</text>
</a>
</g>
</g>
<!-- Node18&#45;&gt;Node29 -->
<g id="edge40" class="edge">
<title>Node18&#45;&gt;Node29</title>
<path fill="none" stroke="#63b8ff" d="M719.47,-164.98C692.39,-156.13 649.79,-142.19 619.49,-132.28"/>
<polygon fill="#63b8ff" stroke="#63b8ff" points="620.32,-128.87 609.73,-129.08 618.15,-135.52 620.32,-128.87"/>
</g>
<!-- Node30 -->
<g id="node30" class="node">
<title>Node30</title>
<g id="a_node30"><a xlink:title=" ">
<polygon fill="#e0e0e0" stroke="#999999" points="679,-129 632,-129 632,-110 679,-110 679,-129"/>
<text text-anchor="middle" x="655.5" y="-117" font-family="Helvetica,sans-Serif" font-size="10.00">cmath</text>
</a>
</g>
</g>
<!-- Node18&#45;&gt;Node30 -->
<g id="edge41" class="edge">
<title>Node18&#45;&gt;Node30</title>
<path fill="none" stroke="#63b8ff" d="M731.04,-164.98C717.08,-156.77 695.71,-144.18 679.25,-134.49"/>
<polygon fill="#63b8ff" stroke="#63b8ff" points="680.62,-131.23 670.22,-129.17 677.06,-137.26 680.62,-131.23"/>
</g>
<!-- Node19&#45;&gt;Node8 -->
<g id="edge38" class="edge">
<title>Node19&#45;&gt;Node8</title>
<path fill="none" stroke="#63b8ff" d="M475.46,-109.86C500.82,-101.48 539.69,-88.03 572.5,-74 589.86,-66.58 592.32,-60.11 610.5,-55 790.3,-4.47 846.37,-43.67 1035.96,-18.88"/>
<polygon fill="#63b8ff" stroke="#63b8ff" points="1036.53,-22.34 1045.97,-17.53 1035.59,-15.4 1036.53,-22.34"/>
</g>
<!-- Node19&#45;&gt;Node14 -->
<g id="edge36" class="edge">
<title>Node19&#45;&gt;Node14</title>
<path fill="none" stroke="#63b8ff" d="M404.83,-114.74C337.36,-108.61 203.59,-95.14 80.68,-74.04"/>
<polygon fill="#63b8ff" stroke="#63b8ff" points="81.17,-70.57 70.72,-72.31 79.97,-77.47 81.17,-70.57"/>
</g>
<!-- Node19&#45;&gt;Node15 -->
<g id="edge33" class="edge">
<title>Node19&#45;&gt;Node15</title>
<path fill="none" stroke="#63b8ff" d="M405,-115.32C350.94,-110.36 263.39,-98.67 243.5,-74 238.2,-67.43 237.85,-61.28 243.5,-55 267.88,-27.9 507.86,-16.05 613.74,-12.11"/>
<polygon fill="#63b8ff" stroke="#63b8ff" points="613.99,-15.6 623.86,-11.74 613.74,-8.61 613.99,-15.6"/>
</g>
<!-- Node19&#45;&gt;Node16 -->
<g id="edge35" class="edge">
<title>Node19&#45;&gt;Node16</title>
<path fill="none" stroke="#63b8ff" d="M492.12,-110.79C544.4,-101.56 632.19,-86.05 690.23,-75.79"/>
<polygon fill="#63b8ff" stroke="#63b8ff" points="691.11,-79.19 700.35,-74.01 689.9,-72.3 691.11,-79.19"/>
</g>
<!-- Node19&#45;&gt;Node17 -->
<g id="edge37" class="edge">
<title>Node19&#45;&gt;Node17</title>
<path fill="none" stroke="#63b8ff" d="M480.47,-109.98C515.62,-100.62 572.06,-85.59 609.46,-75.63"/>
<polygon fill="#63b8ff" stroke="#63b8ff" points="610.7,-78.92 619.47,-72.97 608.9,-72.16 610.7,-78.92"/>
</g>
<!-- Node20 -->
<g id="node20" class="node">
<title>Node20</title>
<g id="a_node20"><a xlink:href="enum__formatter_8h.html" target="_top" xlink:title=" ">
<polygon fill="white" stroke="#666666" points="563.5,-74 427.5,-74 427.5,-55 563.5,-55 563.5,-74"/>
<text text-anchor="middle" x="495.5" y="-62" font-family="Helvetica,sans-Serif" font-size="10.00">ccf/ds/enum_formatter.h</text>
</a>
</g>
</g>
<!-- Node19&#45;&gt;Node20 -->
<g id="edge23" class="edge">
<title>Node19&#45;&gt;Node20</title>
<path fill="none" stroke="#63b8ff" d="M456.26,-109.75C462.97,-102.18 472.84,-91.05 481.01,-81.84"/>
<polygon fill="#63b8ff" stroke="#63b8ff" points="483.87,-83.89 487.88,-74.09 478.63,-79.25 483.87,-83.89"/>
</g>
<!-- Node21 -->
<g id="node21" class="node">
<title>Node21</title>
<g id="a_node21"><a xlink:href="thread__ids_8h.html" target="_top" xlink:title=" ">
<polygon fill="white" stroke="#666666" points="196.5,-74 88.5,-74 88.5,-55 196.5,-55 196.5,-74"/>
<text text-anchor="middle" x="142.5" y="-62" font-family="Helvetica,sans-Serif" font-size="10.00">ccf/ds/thread_ids.h</text>
</a>
</g>
</g>
<!-- Node19&#45;&gt;Node21 -->
<g id="edge25" class="edge">
<title>Node19&#45;&gt;Node21</title>
<path fill="none" stroke="#63b8ff" d="M404.98,-110.96C351.72,-101.74 261.27,-86.07 201.71,-75.75"/>
<polygon fill="#63b8ff" stroke="#63b8ff" points="202.14,-72.28 191.69,-74.02 200.95,-79.18 202.14,-72.28"/>
</g>
<!-- Node27 -->
<g id="node27" class="node">
<title>Node27</title>
<g id="a_node27"><a xlink:title=" ">
<polygon fill="#e0e0e0" stroke="#999999" points="332,-74 253,-74 253,-55 332,-55 332,-74"/>
<text text-anchor="middle" x="292.5" y="-62" font-family="Helvetica,sans-Serif" font-size="10.00">fmt/chrono.h</text>
</a>
</g>
</g>
<!-- Node19&#45;&gt;Node27 -->
<g id="edge32" class="edge">
<title>Node19&#45;&gt;Node27</title>
<path fill="none" stroke="#63b8ff" d="M423.44,-109.98C397.47,-101.16 356.69,-87.31 327.54,-77.41"/>
<polygon fill="#63b8ff" stroke="#63b8ff" points="328.35,-73.99 317.76,-74.08 326.1,-80.61 328.35,-73.99"/>
</g>
<!-- Node28 -->
<g id="node28" class="node">
<title>Node28</title>
<g id="a_node28"><a xlink:title=" ">
<polygon fill="#e0e0e0" stroke="#999999" points="409.5,-74 349.5,-74 349.5,-55 409.5,-55 409.5,-74"/>
<text text-anchor="middle" x="379.5" y="-62" font-family="Helvetica,sans-Serif" font-size="10.00">iostream</text>
</a>
</g>
</g>
<!-- Node19&#45;&gt;Node28 -->
<g id="edge34" class="edge">
<title>Node19&#45;&gt;Node28</title>
<path fill="none" stroke="#63b8ff" d="M437.41,-109.98C427.01,-102 411.24,-89.88 398.78,-80.31"/>
<polygon fill="#63b8ff" stroke="#63b8ff" points="400.85,-77.49 390.79,-74.17 396.59,-83.04 400.85,-77.49"/>
</g>
<!-- Node20&#45;&gt;Node15 -->
<g id="edge24" class="edge">
<title>Node20&#45;&gt;Node15</title>
<path fill="none" stroke="#63b8ff" d="M522.49,-54.98C550.7,-46.09 595.14,-32.07 626.58,-22.15"/>
<polygon fill="#63b8ff" stroke="#63b8ff" points="627.81,-25.43 636.3,-19.08 625.71,-18.75 627.81,-25.43"/>
</g>
<!-- Node21&#45;&gt;Node15 -->
<g id="edge26" class="edge">
<title>Node21&#45;&gt;Node15</title>
<path fill="none" stroke="#63b8ff" d="M196.68,-56.6C201.35,-56.04 206.01,-55.5 210.5,-55 356.8,-38.67 530.05,-22.54 613.56,-14.97"/>
<polygon fill="#63b8ff" stroke="#63b8ff" points="614.13,-18.43 623.77,-14.05 613.5,-11.46 614.13,-18.43"/>
</g>
<!-- Node22 -->
<g id="node22" class="node">
<title>Node22</title>
<g id="a_node22"><a xlink:title=" ">
<polygon fill="#e0e0e0" stroke="#999999" points="227.5,-19 141.5,-19 141.5,0 227.5,0 227.5,-19"/>
<text text-anchor="middle" x="184.5" y="-7" font-family="Helvetica,sans-Serif" font-size="10.00">fmt/ostream.h</text>
</a>
</g>
</g>
<!-- Node21&#45;&gt;Node22 -->
<g id="edge27" class="edge">
<title>Node21&#45;&gt;Node22</title>
<path fill="none" stroke="#63b8ff" d="M149.44,-54.75C155.37,-47.26 164.07,-36.28 171.32,-27.13"/>
<polygon fill="#63b8ff" stroke="#63b8ff" points="174.23,-29.1 177.69,-19.09 168.74,-24.75 174.23,-29.1"/>
</g>
<!-- Node23 -->
<g id="node23" class="node">
<title>Node23</title>
<g id="a_node23"><a xlink:title=" ">
<polygon fill="#e0e0e0" stroke="#999999" points="61,-19 0,-19 0,0 61,0 61,-19"/>
<text text-anchor="middle" x="30.5" y="-7" font-family="Helvetica,sans-Serif" font-size="10.00">fmt/std.h</text>
</a>
</g>
</g>
<!-- Node21&#45;&gt;Node23 -->
<g id="edge28" class="edge">
<title>Node21&#45;&gt;Node23</title>
<path fill="none" stroke="#63b8ff" d="M124.51,-54.98C106.57,-46.5 78.78,-33.35 58.07,-23.54"/>
<polygon fill="#63b8ff" stroke="#63b8ff" points="59.36,-20.28 48.82,-19.17 56.36,-26.61 59.36,-20.28"/>
</g>
<!-- Node24 -->
<g id="node24" class="node">
<title>Node24</title>
<g id="a_node24"><a xlink:title=" ">
<polygon fill="#e0e0e0" stroke="#999999" points="123.5,-19 79.5,-19 79.5,0 123.5,0 123.5,-19"/>
<text text-anchor="middle" x="101.5" y="-7" font-family="Helvetica,sans-Serif" font-size="10.00">limits</text>
</a>
</g>
</g>
<!-- Node21&#45;&gt;Node24 -->
<g id="edge29" class="edge">
<title>Node21&#45;&gt;Node24</title>
<path fill="none" stroke="#63b8ff" d="M135.73,-54.75C129.94,-47.26 121.44,-36.28 114.36,-27.13"/>
<polygon fill="#63b8ff" stroke="#63b8ff" points="117.03,-24.86 108.14,-19.09 111.49,-29.14 117.03,-24.86"/>
</g>
<!-- Node25 -->
<g id="node25" class="node">
<title>Node25</title>
<g id="a_node25"><a xlink:title=" ">
<polygon fill="#e0e0e0" stroke="#999999" points="1027.5,-19 989.5,-19 989.5,0 1027.5,0 1027.5,-19"/>
<text text-anchor="middle" x="1008.5" y="-7" font-family="Helvetica,sans-Serif" font-size="10.00">map</text>
</a>
</g>
</g>
<!-- Node21&#45;&gt;Node25 -->
<g id="edge30" class="edge">
<title>Node21&#45;&gt;Node25</title>
<path fill="none" stroke="#63b8ff" d="M196.73,-58.68C211.86,-57.4 228.32,-56.08 243.5,-55 529.98,-34.62 877.31,-16.97 979.14,-11.93"/>
<polygon fill="#63b8ff" stroke="#63b8ff" points="979.46,-15.42 989.27,-11.43 979.11,-8.43 979.46,-15.42"/>
</g>
<!-- Node26 -->
<g id="node26" class="node">
<title>Node26</title>
<g id="a_node26"><a xlink:title=" ">
<polygon fill="#e0e0e0" stroke="#999999" points="293.5,-19 245.5,-19 245.5,0 293.5,0 293.5,-19"/>
<text text-anchor="middle" x="269.5" y="-7" font-family="Helvetica,sans-Serif" font-size="10.00">thread</text>
</a>
</g>
</g>
<!-- Node21&#45;&gt;Node26 -->
<g id="edge31" class="edge">
<title>Node21&#45;&gt;Node26</title>
<path fill="none" stroke="#63b8ff" d="M162.9,-54.98C183.52,-46.38 215.61,-32.99 239.19,-23.15"/>
<polygon fill="#63b8ff" stroke="#63b8ff" points="240.84,-26.25 248.72,-19.17 238.15,-19.79 240.84,-26.25"/>
</g>
<!-- Node31&#45;&gt;Node6 -->
<g id="edge47" class="edge">
<title>Node31&#45;&gt;Node6</title>
<path fill="none" stroke="#63b8ff" d="M1089.31,-54.98C1135.05,-47.17 1203.72,-34.77 1272.12,-19.17"/>
<polygon fill="#63b8ff" stroke="#63b8ff" points="1273.25,-22.5 1282.2,-16.85 1271.67,-15.68 1273.25,-22.5"/>
</g>
<!-- Node31&#45;&gt;Node25 -->
<g id="edge46" class="edge">
<title>Node31&#45;&gt;Node25</title>
<path fill="none" stroke="#63b8ff" d="M1032.71,-54.75C1028.74,-47.49 1022.97,-36.95 1018.07,-27.98"/>
<polygon fill="#63b8ff" stroke="#63b8ff" points="1021.07,-26.18 1013.2,-19.09 1014.93,-29.54 1021.07,-26.18"/>
</g>
<!-- Node32&#45;&gt;Node31 -->
<g id="edge50" class="edge">
<title>Node32&#45;&gt;Node31</title>
<path fill="none" stroke="#63b8ff" d="M1277.76,-274.98C1250.64,-268.35 1216.59,-257.14 1190.5,-239 1130.04,-196.96 1137.02,-163.58 1086.5,-110 1076.87,-99.78 1065.26,-89.18 1055.77,-80.89"/>
<polygon fill="#63b8ff" stroke="#63b8ff" points="1057.93,-78.13 1048.07,-74.26 1053.37,-83.44 1057.93,-78.13"/>
</g>
<!-- Node33 -->
<g id="node33" class="node">
<title>Node33</title>
<g id="a_node33"><a xlink:href="http__consts_8h.html" target="_top" xlink:title=" ">
<polygon fill="white" stroke="#666666" points="1441,-74 1342,-74 1342,-55 1441,-55 1441,-74"/>
<text text-anchor="middle" x="1391.5" y="-62" font-family="Helvetica,sans-Serif" font-size="10.00">ccf/http_consts.h</text>
</a>
</g>
</g>
<!-- Node32&#45;&gt;Node33 -->
<g id="edge49" class="edge">
<title>Node32&#45;&gt;Node33</title>
<path fill="none" stroke="#63b8ff" d="M1346.22,-274.86C1361.44,-267.74 1380.32,-256.03 1389.5,-239 1416.73,-188.5 1404.55,-117.1 1396.53,-83.86"/>
<polygon fill="#63b8ff" stroke="#63b8ff" points="1399.91,-82.95 1394.03,-74.13 1393.13,-84.69 1399.91,-82.95"/>
</g>
<!-- Node34 -->
<g id="node34" class="node">
<title>Node34</title>
<g id="a_node34"><a xlink:href="odata__error_8h.html" target="_top" xlink:title=" ">
<polygon fill="white" stroke="#666666" points="1297.5,-239 1199.5,-239 1199.5,-220 1297.5,-220 1297.5,-239"/>
<text text-anchor="middle" x="1248.5" y="-227" font-family="Helvetica,sans-Serif" font-size="10.00">ccf/odata_error.h</text>
</a>
</g>
</g>
<!-- Node32&#45;&gt;Node34 -->
<g id="edge51" class="edge">
<title>Node32&#45;&gt;Node34</title>
<path fill="none" stroke="#63b8ff" d="M1311.45,-274.98C1300.04,-266.92 1282.67,-254.65 1269.07,-245.03"/>
<polygon fill="#63b8ff" stroke="#63b8ff" points="1270.96,-242.08 1260.77,-239.17 1266.92,-247.8 1270.96,-242.08"/>
</g>
<!-- Node36 -->
<g id="node36" class="node">
<title>Node36</title>
<g id="a_node36"><a xlink:title=" ">
<polygon fill="#e0e0e0" stroke="#999999" points="1381,-239 1316,-239 1316,-220 1381,-220 1381,-239"/>
<text text-anchor="middle" x="1348.5" y="-227" font-family="Helvetica,sans-Serif" font-size="10.00">functional</text>
</a>
</g>
</g>
<!-- Node32&#45;&gt;Node36 -->
<g id="edge54" class="edge">
<title>Node32&#45;&gt;Node36</title>
<path fill="none" stroke="#63b8ff" d="M1327.63,-274.75C1331.01,-267.57 1335.92,-257.18 1340.12,-248.27"/>
<polygon fill="#63b8ff" stroke="#63b8ff" points="1343.35,-249.63 1344.45,-239.09 1337.02,-246.64 1343.35,-249.63"/>
</g>
<!-- Node34&#45;&gt;Node11 -->
<g id="edge52" class="edge">
<title>Node34&#45;&gt;Node11</title>
<path fill="none" stroke="#63b8ff" d="M1199.35,-220.79C1135.18,-210.73 1023.51,-193.22 959.44,-183.17"/>
<polygon fill="#63b8ff" stroke="#63b8ff" points="959.62,-179.66 949.2,-181.57 958.54,-186.58 959.62,-179.66"/>
</g>
<!-- Node34&#45;&gt;Node35 -->
<g id="edge53" class="edge">
<title>Node34&#45;&gt;Node35</title>
<path fill="none" stroke="#63b8ff" d="M1262.11,-219.97C1304.4,-193.46 1433.77,-112.35 1486.14,-79.52"/>
<polygon fill="#63b8ff" stroke="#63b8ff" points="1488.09,-82.42 1494.71,-74.15 1484.38,-76.49 1488.09,-82.42"/>
</g>
<!-- Node37&#45;&gt;Node6 -->
<g id="edge68" class="edge">
<title>Node37&#45;&gt;Node6</title>
<path fill="none" stroke="#63b8ff" d="M1885.11,-164.75C1881,-142.13 1866.66,-81.61 1827.5,-55 1807.12,-41.15 1447.82,-18.94 1336.87,-12.38"/>
<polygon fill="#63b8ff" stroke="#63b8ff" points="1336.82,-8.87 1326.63,-11.78 1336.41,-15.86 1336.82,-8.87"/>
</g>
<!-- Node38 -->
<g id="node38" class="node">
<title>Node38</title>
<g id="a_node38"><a xlink:href="include_2ccf_2ds_2hash_8h.html" target="_top" xlink:title=" ">
<polygon fill="white" stroke="#666666" points="2069.5,-129 1989.5,-129 1989.5,-110 2069.5,-110 2069.5,-129"/>
<text text-anchor="middle" x="2029.5" y="-117" font-family="Helvetica,sans-Serif" font-size="10.00">ccf/ds/hash.h</text>
</a>
</g>
</g>
<!-- Node37&#45;&gt;Node38 -->
<g id="edge57" class="edge">
<title>Node37&#45;&gt;Node38</title>
<path fill="none" stroke="#63b8ff" d="M1909.48,-164.98C1933,-156.27 1969.79,-142.63 1996.44,-132.75"/>
<polygon fill="#63b8ff" stroke="#63b8ff" points="1997.95,-135.93 2006.11,-129.17 1995.51,-129.36 1997.95,-135.93"/>
</g>
<!-- Node43 -->
<g id="node43" class="node">
<title>Node43</title>
<g id="a_node43"><a xlink:title=" ">
<polygon fill="#e0e0e0" stroke="#999999" points="1655.5,-74 1575.5,-74 1575.5,-55 1655.5,-55 1655.5,-74"/>
<text text-anchor="middle" x="1615.5" y="-62" font-family="Helvetica,sans-Serif" font-size="10.00">llhttp/llhttp.h</text>
</a>
</g>
</g>
<!-- Node37&#45;&gt;Node43 -->
<g id="edge67" class="edge">
<title>Node37&#45;&gt;Node43</title>
<path fill="none" stroke="#63b8ff" d="M1864.78,-164.84C1816.79,-145.72 1701.62,-99.82 1646.25,-77.75"/>
<polygon fill="#63b8ff" stroke="#63b8ff" points="1647.53,-74.5 1636.95,-74.05 1644.94,-81 1647.53,-74.5"/>
</g>
<!-- Node38&#45;&gt;Node4 -->
<g id="edge62" class="edge">
<title>Node38&#45;&gt;Node4</title>
<path fill="none" stroke="#63b8ff" d="M2012.51,-109.84C1975.44,-90.96 1887.1,-45.96 1843.19,-23.59"/>
<polygon fill="#63b8ff" stroke="#63b8ff" points="1844.78,-20.47 1834.28,-19.05 1841.6,-26.7 1844.78,-20.47"/>
</g>
<!-- Node38&#45;&gt;Node7 -->
<g id="edge65" class="edge">
<title>Node38&#45;&gt;Node7</title>
<path fill="none" stroke="#63b8ff" d="M2004.05,-109.84C1979.23,-101.25 1940.48,-87.45 1907.5,-74 1888.53,-66.26 1885.21,-60.6 1865.5,-55 1761.99,-25.6 1635.38,-15.56 1568.35,-12.18"/>
<polygon fill="#63b8ff" stroke="#63b8ff" points="1568.27,-8.67 1558.11,-11.69 1567.94,-15.66 1568.27,-8.67"/>
</g>
<!-- Node38&#45;&gt;Node9 -->
<g id="edge66" class="edge">
<title>Node38&#45;&gt;Node9</title>
<path fill="none" stroke="#63b8ff" d="M2058.7,-109.96C2088.84,-99.57 2129.27,-80.23 2112.5,-55 2096.55,-31 2064.87,-19.92 2040.29,-14.82"/>
<polygon fill="#63b8ff" stroke="#63b8ff" points="2040.72,-11.34 2030.25,-12.98 2039.45,-18.22 2040.72,-11.34"/>
</g>
<!-- Node39 -->
<g id="node39" class="node">
<title>Node39</title>
<g id="a_node39"><a xlink:href="siphash_8h.html" target="_top" xlink:title=" ">
<polygon fill="white" stroke="#666666" points="2293,-74 2198,-74 2198,-55 2293,-55 2293,-74"/>
<text text-anchor="middle" x="2245.5" y="-62" font-family="Helvetica,sans-Serif" font-size="10.00">ccf/ds/siphash.h</text>
</a>
</g>
</g>
<!-- Node38&#45;&gt;Node39 -->
<g id="edge58" class="edge">
<title>Node38&#45;&gt;Node39</title>
<path fill="none" stroke="#63b8ff" d="M2064.2,-109.98C2101.25,-100.89 2160.09,-86.46 2200.63,-76.51"/>
<polygon fill="#63b8ff" stroke="#63b8ff" points="2201.65,-79.86 2210.52,-74.08 2199.98,-73.07 2201.65,-79.86"/>
</g>
<!-- Node41 -->
<g id="node41" class="node">
<title>Node41</title>
<g id="a_node41"><a xlink:title=" ">
<polygon fill="#e0e0e0" stroke="#999999" points="2343.5,-19 2293.5,-19 2293.5,0 2343.5,0 2343.5,-19"/>
<text text-anchor="middle" x="2318.5" y="-7" font-family="Helvetica,sans-Serif" font-size="10.00">cstdint</text>
</a>
</g>
</g>
<!-- Node38&#45;&gt;Node41 -->
<g id="edge63" class="edge">
<title>Node38&#45;&gt;Node41</title>
<path fill="none" stroke="#63b8ff" d="M2069.55,-117.15C2136.74,-114.06 2268.11,-104.23 2301.5,-74 2313.78,-62.88 2317.6,-43.95 2318.61,-29.64"/>
<polygon fill="#63b8ff" stroke="#63b8ff" points="2322.11,-29.5 2318.92,-19.4 2315.12,-29.29 2322.11,-29.5"/>
</g>
<!-- Node42 -->
<g id="node42" class="node">
<title>Node42</title>
<g id="a_node42"><a xlink:title=" ">
<polygon fill="#e0e0e0" stroke="#999999" points="2104,-74 1955,-74 1955,-55 2104,-55 2104,-74"/>
<text text-anchor="middle" x="2029.5" y="-62" font-family="Helvetica,sans-Serif" font-size="10.00">small_vector/SmallVector.h</text>
</a>
</g>
</g>
<!-- Node38&#45;&gt;Node42 -->
<g id="edge64" class="edge">
<title>Node38&#45;&gt;Node42</title>
<path fill="none" stroke="#63b8ff" d="M2029.5,-109.75C2029.5,-102.8 2029.5,-92.85 2029.5,-84.13"/>
<polygon fill="#63b8ff" stroke="#63b8ff" points="2033,-84.09 2029.5,-74.09 2026,-84.09 2033,-84.09"/>
</g>
<!-- Node39&#45;&gt;Node9 -->
<g id="edge61" class="edge">
<title>Node39&#45;&gt;Node9</title>
<path fill="none" stroke="#63b8ff" d="M2207.1,-54.98C2160.92,-44.74 2084.16,-27.72 2040.19,-17.97"/>
<polygon fill="#63b8ff" stroke="#63b8ff" points="2040.8,-14.52 2030.28,-15.77 2039.28,-21.36 2040.8,-14.52"/>
</g>
<!-- Node40 -->
<g id="node40" class="node">
<title>Node40</title>
<g id="a_node40"><a xlink:title=" ">
<polygon fill="#e0e0e0" stroke="#999999" points="2272,-19 2219,-19 2219,0 2272,0 2272,-19"/>
<text text-anchor="middle" x="2245.5" y="-7" font-family="Helvetica,sans-Serif" font-size="10.00">cstddef</text>
</a>
</g>
</g>
<!-- Node39&#45;&gt;Node40 -->
<g id="edge59" class="edge">
<title>Node39&#45;&gt;Node40</title>
<path fill="none" stroke="#63b8ff" d="M2245.5,-54.75C2245.5,-47.8 2245.5,-37.85 2245.5,-29.13"/>
<polygon fill="#63b8ff" stroke="#63b8ff" points="2249,-29.09 2245.5,-19.09 2242,-29.09 2249,-29.09"/>
</g>
<!-- Node39&#45;&gt;Node41 -->
<g id="edge60" class="edge">
<title>Node39&#45;&gt;Node41</title>
<path fill="none" stroke="#63b8ff" d="M2257.23,-54.98C2268.23,-47 2284.92,-34.88 2298.1,-25.31"/>
<polygon fill="#63b8ff" stroke="#63b8ff" points="2300.52,-27.88 2306.56,-19.17 2296.41,-22.21 2300.52,-27.88"/>
</g>
<!-- Node44&#45;&gt;Node2 -->
<g id="edge70" class="edge">
<title>Node44&#45;&gt;Node2</title>
<path fill="none" stroke="#63b8ff" d="M1279.72,-109.98C1265.32,-101.69 1243.19,-88.94 1226.31,-79.22"/>
<polygon fill="#63b8ff" stroke="#63b8ff" points="1227.96,-76.13 1217.55,-74.17 1224.47,-82.19 1227.96,-76.13"/>
</g>
<!-- Node44&#45;&gt;Node6 -->
<g id="edge77" class="edge">
<title>Node44&#45;&gt;Node6</title>
<path fill="none" stroke="#63b8ff" d="M1295.09,-109.86C1295.94,-97.64 1297.63,-74.59 1299.5,-55 1300.31,-46.48 1301.35,-37.06 1302.27,-29.08"/>
<polygon fill="#63b8ff" stroke="#63b8ff" points="1305.76,-29.36 1303.46,-19.02 1298.81,-28.54 1305.76,-29.36"/>
</g>
<!-- Node44&#45;&gt;Node9 -->
<g id="edge78" class="edge">
<title>Node44&#45;&gt;Node9</title>
<path fill="none" stroke="#63b8ff" d="M1296.9,-109.65C1301.29,-95.34 1312.11,-67.46 1332.5,-55 1346.31,-46.56 1837.56,-19.58 1972.51,-12.32"/>
<polygon fill="#63b8ff" stroke="#63b8ff" points="1972.87,-15.8 1982.67,-11.77 1972.5,-8.81 1972.87,-15.8"/>
</g>
<!-- Node44&#45;&gt;Node15 -->
<g id="edge74" class="edge">
<title>Node44&#45;&gt;Node15</title>
<path fill="none" stroke="#63b8ff" d="M1252.88,-114.19C1190.1,-107.4 1067.55,-92.99 964.5,-74 928.14,-67.3 919.63,-62.89 883.5,-55 825.22,-42.27 757.98,-28.86 713.33,-20.12"/>
<polygon fill="#63b8ff" stroke="#63b8ff" points="713.81,-16.65 703.32,-18.17 712.47,-23.52 713.81,-16.65"/>
</g>
<!-- Node44&#45;&gt;Node25 -->
<g id="edge76" class="edge">
<title>Node44&#45;&gt;Node25</title>
<path fill="none" stroke="#63b8ff" d="M1260.9,-109.98C1230.95,-101.99 1186.15,-89.03 1148.5,-74 1130.96,-67 1127.6,-63 1110.5,-55 1085.99,-43.53 1057.76,-31.29 1037.22,-22.56"/>
<polygon fill="#63b8ff" stroke="#63b8ff" points="1038.38,-19.25 1027.81,-18.57 1035.65,-25.69 1038.38,-19.25"/>
</g>
<!-- Node44&#45;&gt;Node31 -->
<g id="edge72" class="edge">
<title>Node44&#45;&gt;Node31</title>
<path fill="none" stroke="#63b8ff" d="M1253.21,-109.98C1208.57,-100.78 1137.34,-86.09 1089.05,-76.13"/>
<polygon fill="#63b8ff" stroke="#63b8ff" points="1089.62,-72.67 1079.12,-74.08 1088.2,-79.53 1089.62,-72.67"/>
</g>
<!-- Node44&#45;&gt;Node33 -->
<g id="edge71" class="edge">
<title>Node44&#45;&gt;Node33</title>
<path fill="none" stroke="#63b8ff" d="M1310.08,-109.98C1325.27,-101.69 1348.6,-88.94 1366.4,-79.22"/>
<polygon fill="#63b8ff" stroke="#63b8ff" points="1368.53,-82.04 1375.63,-74.17 1365.18,-75.89 1368.53,-82.04"/>
</g>
<!-- Node44&#45;&gt;Node35 -->
<g id="edge73" class="edge">
<title>Node44&#45;&gt;Node35</title>
<path fill="none" stroke="#63b8ff" d="M1328.88,-109.98C1365.59,-100.89 1423.88,-86.46 1464.05,-76.51"/>
<polygon fill="#63b8ff" stroke="#63b8ff" points="1464.98,-79.88 1473.85,-74.08 1463.3,-73.09 1464.98,-79.88"/>
</g>
<!-- Node44&#45;&gt;Node43 -->
<g id="edge75" class="edge">
<title>Node44&#45;&gt;Node43</title>
<path fill="none" stroke="#63b8ff" d="M1336.46,-111.76C1387.92,-103.47 1478.1,-88.85 1565.32,-74.19"/>
<polygon fill="#63b8ff" stroke="#63b8ff" points="1566.11,-77.6 1575.39,-72.49 1564.95,-70.7 1566.11,-77.6"/>
</g>
</g>
</svg>
        <g id="navigator" transform="translate(0 0)" fill="#404254">
                <rect fill="#f2f5e9" fill-opacity="0.5" stroke="#606060" stroke-width=".5" x="0" y="0" width="60" height="60"/>
                <use id="zoomplus" xlink:href="#zoomPlus" x="17" y="9" onmousedown="handleZoom(evt,'in')"/>
                <use id="zoomminus" xlink:href="#zoomMin" x="42" y="9" onmousedown="handleZoom(evt,'out')"/>
                <use id="reset" xlink:href="#resetDef" x="30" y="36" onmousedown="handleReset()"/>
                <g id="arrowUp" xlink:href="#dirArrow" transform="translate(30 24)" onmousedown="handlePan(0,-1)">
                  <use xlink:href="#rim" fill="#404040">
                        <set attributeName="fill" to="#808080" begin="arrowUp.mouseover" end="arrowUp.mouseout"/>
                  </use>
                  <path fill="none" stroke="white" stroke-width="1.5" d="M0,-3.0v7 M-2.5,-0.5L0,-3.0L2.5,-0.5"/>
                </g>
                <g id="arrowRight" xlink:href="#dirArrow" transform="rotate(90) translate(36 -43)" onmousedown="handlePan(1,0)">
                  <use xlink:href="#rim" fill="#404040">
                        <set attributeName="fill" to="#808080" begin="arrowRight.mouseover" end="arrowRight.mouseout"/>
                  </use>
                  <path fill="none" stroke="white" stroke-width="1.5" d="M0,-3.0v7 M-2.5,-0.5L0,-3.0L2.5,-0.5"/>
                </g>
                <g id="arrowDown" xlink:href="#dirArrow" transform="rotate(180) translate(-30 -48)" onmousedown="handlePan(0,1)">
                  <use xlink:href="#rim" fill="#404040">
                        <set attributeName="fill" to="#808080" begin="arrowDown.mouseover" end="arrowDown.mouseout"/>
                  </use>
                  <path fill="none" stroke="white" stroke-width="1.5" d="M0,-3.0v7 M-2.5,-0.5L0,-3.0L2.5,-0.5"/>
                </g>
                <g id="arrowLeft" xlink:href="#dirArrow" transform="rotate(270) translate(-36 17)" onmousedown="handlePan(-1,0)">
                  <use xlink:href="#rim" fill="#404040">
                        <set attributeName="fill" to="#808080" begin="arrowLeft.mouseover" end="arrowLeft.mouseout"/>
                  </use>
                  <path fill="none" stroke="white" stroke-width="1.5" d="M0,-3.0v7 M-2.5,-0.5L0,-3.0L2.5,-0.5"/>
                </g>
        </g>
        <svg viewBox="0 0 15 15" width="100%" height="30px" preserveAspectRatio="xMaxYMin meet">
         <g id="arrow_out" transform="scale(0.3 0.3)">
          <a xlink:href="http2__types_8h__incl_org.svg" target="_base">
           <rect id="button" ry="5" rx="5" y="6" x="6" height="38" width="38"
                fill="#f2f5e9" fill-opacity="0.5" stroke="#606060" stroke-width="1.0"/>
           <path id="arrow"
             d="M 11.500037,31.436501 C 11.940474,20.09759 22.043105,11.32322 32.158766,21.979434 L 37.068811,17.246167 C 37.068811,17.246167 37.088388,32 37.088388,32 L 22.160133,31.978069 C 22.160133,31.978069 26.997745,27.140456 26.997745,27.140456 C 18.528582,18.264221 13.291696,25.230495 11.500037,31.436501 z"
             style="fill:#404040;"/>
          </a>
         </g>
        </svg>
</svg>
