<?xml version="1.0" encoding="UTF-8" standalone="no"?>
<!DOCTYPE svg PUBLIC "-//W3C//DTD SVG 1.1//EN"
 "http://www.w3.org/Graphics/SVG/1.1/DTD/svg11.dtd">
<!-- Generated by graphviz version 2.43.0 (0)
 -->
<!-- Title: src/endpoints/grpc/stream.h Pages: 1 -->
<svg width="1257pt" height="368pt"
 viewBox="0.00 0.00 1256.50 368.00" xmlns="http://www.w3.org/2000/svg" xmlns:xlink="http://www.w3.org/1999/xlink">
<g id="graph0" class="graph" transform="scale(1 1) rotate(0) translate(4 364)">
<title>src/endpoints/grpc/stream.h</title>
<!-- Node1 -->
<g id="node1" class="node">
<title>Node1</title>
<g id="a_node1"><a xlink:title=" ">
<polygon fill="#999999" stroke="#666666" points="499,-360 393,-360 393,-330 499,-330 499,-360"/>
<text text-anchor="start" x="401" y="-348" font-family="Helvetica,sans-Serif" font-size="10.00">src/endpoints/grpc</text>
<text text-anchor="middle" x="446" y="-337" font-family="Helvetica,sans-Serif" font-size="10.00">/stream.h</text>
</a>
</g>
</g>
<!-- Node2 -->
<g id="node2" class="node">
<title>Node2</title>
<g id="a_node2"><a xlink:href="http__header__map_8h.html" target="_top" xlink:title=" ">
<polygon fill="white" stroke="#666666" points="128,-74 0,-74 0,-55 128,-55 128,-74"/>
<text text-anchor="middle" x="64" y="-62" font-family="Helvetica,sans-Serif" font-size="10.00">ccf/http_header_map.h</text>
</a>
</g>
</g>
<!-- Node1&#45;&gt;Node2 -->
<g id="edge1" class="edge">
<title>Node1&#45;&gt;Node2</title>
<path fill="none" stroke="#63b8ff" d="M392.98,-340.88C279.64,-332.77 24,-306.08 24,-230.5 24,-230.5 24,-230.5 24,-173.5 24,-139.67 41.47,-103.38 53.32,-82.66"/>
<polygon fill="#63b8ff" stroke="#63b8ff" points="56.34,-84.44 58.44,-74.06 50.32,-80.86 56.34,-84.44"/>
</g>
<!-- Node5 -->
<g id="node5" class="node">
<title>Node5</title>
<g id="a_node5"><a xlink:href="http__responder_8h.html" target="_top" xlink:title=" ">
<polygon fill="white" stroke="#666666" points="557,-294 441,-294 441,-275 557,-275 557,-294"/>
<text text-anchor="middle" x="499" y="-282" font-family="Helvetica,sans-Serif" font-size="10.00">ccf/http_responder.h</text>
</a>
</g>
</g>
<!-- Node1&#45;&gt;Node5 -->
<g id="edge4" class="edge">
<title>Node1&#45;&gt;Node5</title>
<path fill="none" stroke="#63b8ff" d="M458.83,-329.84C466.52,-321.35 476.33,-310.52 484.33,-301.69"/>
<polygon fill="#63b8ff" stroke="#63b8ff" points="486.94,-304.03 491.06,-294.27 481.75,-299.33 486.94,-304.03"/>
</g>
<!-- Node24 -->
<g id="node24" class="node">
<title>Node24</title>
<g id="a_node24"><a xlink:href="endpoints_2grpc_2message_8h.html" target="_top" xlink:title=" ">
<polygon fill="white" stroke="#666666" points="1117,-129 1047,-129 1047,-110 1117,-110 1117,-129"/>
<text text-anchor="middle" x="1082" y="-117" font-family="Helvetica,sans-Serif" font-size="10.00">message.h</text>
</a>
</g>
</g>
<!-- Node1&#45;&gt;Node24 -->
<g id="edge28" class="edge">
<title>Node1&#45;&gt;Node24</title>
<path fill="none" stroke="#63b8ff" d="M486.27,-329.85C602.92,-288.85 939.68,-170.51 1048,-132.45"/>
<polygon fill="#63b8ff" stroke="#63b8ff" points="1049.48,-135.64 1057.76,-129.02 1047.16,-129.03 1049.48,-135.64"/>
</g>
<!-- Node30 -->
<g id="node30" class="node">
<title>Node30</title>
<g id="a_node30"><a xlink:href="status_8h.html" target="_top" xlink:title=" ">
<polygon fill="white" stroke="#666666" points="184,-184 128,-184 128,-165 184,-165 184,-184"/>
<text text-anchor="middle" x="156" y="-172" font-family="Helvetica,sans-Serif" font-size="10.00">status.h</text>
</a>
</g>
</g>
<!-- Node1&#45;&gt;Node30 -->
<g id="edge37" class="edge">
<title>Node1&#45;&gt;Node30</title>
<path fill="none" stroke="#63b8ff" d="M421.77,-329.92C366.94,-298.06 233.88,-220.75 179.62,-189.23"/>
<polygon fill="#63b8ff" stroke="#63b8ff" points="181.14,-186.06 170.74,-184.06 177.62,-192.11 181.14,-186.06"/>
</g>
<!-- Node33 -->
<g id="node33" class="node">
<title>Node33</title>
<g id="a_node33"><a xlink:href="types_8h.html" target="_top" xlink:title=" ">
<polygon fill="white" stroke="#666666" points="426.5,-239 373.5,-239 373.5,-220 426.5,-220 426.5,-239"/>
<text text-anchor="middle" x="400" y="-227" font-family="Helvetica,sans-Serif" font-size="10.00">types.h</text>
</a>
</g>
</g>
<!-- Node1&#45;&gt;Node33 -->
<g id="edge45" class="edge">
<title>Node1&#45;&gt;Node33</title>
<path fill="none" stroke="#63b8ff" d="M440.17,-329.63C431.83,-309.03 416.46,-271.12 407.35,-248.63"/>
<polygon fill="#63b8ff" stroke="#63b8ff" points="410.54,-247.18 403.54,-239.23 404.05,-249.81 410.54,-247.18"/>
</g>
<!-- Node36 -->
<g id="node36" class="node">
<title>Node36</title>
<g id="a_node36"><a xlink:title=" ">
<polygon fill="#e0e0e0" stroke="#999999" points="901,-294 843,-294 843,-275 901,-275 901,-294"/>
<text text-anchor="middle" x="872" y="-282" font-family="Helvetica,sans-Serif" font-size="10.00">memory</text>
</a>
</g>
</g>
<!-- Node1&#45;&gt;Node36 -->
<g id="edge53" class="edge">
<title>Node1&#45;&gt;Node36</title>
<path fill="none" stroke="#63b8ff" d="M499.13,-338.18C573.23,-329.8 711.71,-313.23 829,-294 830.27,-293.79 831.55,-293.57 832.85,-293.35"/>
<polygon fill="#63b8ff" stroke="#63b8ff" points="833.69,-296.76 842.9,-291.52 832.44,-289.87 833.69,-296.76"/>
</g>
<!-- Node3 -->
<g id="node3" class="node">
<title>Node3</title>
<g id="a_node3"><a xlink:title=" ">
<polygon fill="#e0e0e0" stroke="#999999" points="83,-19 45,-19 45,0 83,0 83,-19"/>
<text text-anchor="middle" x="64" y="-7" font-family="Helvetica,sans-Serif" font-size="10.00">map</text>
</a>
</g>
</g>
<!-- Node2&#45;&gt;Node3 -->
<g id="edge2" class="edge">
<title>Node2&#45;&gt;Node3</title>
<path fill="none" stroke="#63b8ff" d="M64,-54.75C64,-47.8 64,-37.85 64,-29.13"/>
<polygon fill="#63b8ff" stroke="#63b8ff" points="67.5,-29.09 64,-19.09 60.5,-29.09 67.5,-29.09"/>
</g>
<!-- Node4 -->
<g id="node4" class="node">
<title>Node4</title>
<g id="a_node4"><a xlink:title=" ">
<polygon fill="#e0e0e0" stroke="#999999" points="431,-19 387,-19 387,0 431,0 431,-19"/>
<text text-anchor="middle" x="409" y="-7" font-family="Helvetica,sans-Serif" font-size="10.00">string</text>
</a>
</g>
</g>
<!-- Node2&#45;&gt;Node4 -->
<g id="edge3" class="edge">
<title>Node2&#45;&gt;Node4</title>
<path fill="none" stroke="#63b8ff" d="M119.43,-54.98C192.23,-43.8 317.71,-24.52 376.65,-15.47"/>
<polygon fill="#63b8ff" stroke="#63b8ff" points="377.5,-18.88 386.85,-13.9 376.43,-11.96 377.5,-18.88"/>
</g>
<!-- Node5&#45;&gt;Node2 -->
<g id="edge6" class="edge">
<title>Node5&#45;&gt;Node2</title>
<path fill="none" stroke="#63b8ff" d="M440.78,-284.05C356.6,-281.81 200.24,-265.89 102,-184 72.22,-159.18 65.52,-110.93 64.17,-84.29"/>
<polygon fill="#63b8ff" stroke="#63b8ff" points="67.66,-83.93 63.87,-74.03 60.67,-84.13 67.66,-83.93"/>
</g>
<!-- Node6 -->
<g id="node6" class="node">
<title>Node6</title>
<g id="a_node6"><a xlink:href="http__consts_8h.html" target="_top" xlink:title=" ">
<polygon fill="white" stroke="#666666" points="442.5,-74 343.5,-74 343.5,-55 442.5,-55 442.5,-74"/>
<text text-anchor="middle" x="393" y="-62" font-family="Helvetica,sans-Serif" font-size="10.00">ccf/http_consts.h</text>
</a>
</g>
</g>
<!-- Node5&#45;&gt;Node6 -->
<g id="edge5" class="edge">
<title>Node5&#45;&gt;Node6</title>
<path fill="none" stroke="#63b8ff" d="M511.28,-274.86C526.23,-263.17 548.52,-241.32 540,-220 514.64,-156.57 449.48,-104.31 415.06,-80.08"/>
<polygon fill="#63b8ff" stroke="#63b8ff" points="416.84,-77.05 406.62,-74.26 412.86,-82.82 416.84,-77.05"/>
</g>
<!-- Node7 -->
<g id="node7" class="node">
<title>Node7</title>
<g id="a_node7"><a xlink:href="odata__error_8h.html" target="_top" xlink:title=" ">
<polygon fill="white" stroke="#666666" points="691,-239 593,-239 593,-220 691,-220 691,-239"/>
<text text-anchor="middle" x="642" y="-227" font-family="Helvetica,sans-Serif" font-size="10.00">ccf/odata_error.h</text>
</a>
</g>
</g>
<!-- Node5&#45;&gt;Node7 -->
<g id="edge7" class="edge">
<title>Node5&#45;&gt;Node7</title>
<path fill="none" stroke="#63b8ff" d="M521.98,-274.98C545.5,-266.27 582.29,-252.63 608.94,-242.75"/>
<polygon fill="#63b8ff" stroke="#63b8ff" points="610.45,-245.93 618.61,-239.17 608.01,-239.36 610.45,-245.93"/>
</g>
<!-- Node23 -->
<g id="node23" class="node">
<title>Node23</title>
<g id="a_node23"><a xlink:title=" ">
<polygon fill="#e0e0e0" stroke="#999999" points="531.5,-239 466.5,-239 466.5,-220 531.5,-220 531.5,-239"/>
<text text-anchor="middle" x="499" y="-227" font-family="Helvetica,sans-Serif" font-size="10.00">functional</text>
</a>
</g>
</g>
<!-- Node5&#45;&gt;Node23 -->
<g id="edge27" class="edge">
<title>Node5&#45;&gt;Node23</title>
<path fill="none" stroke="#63b8ff" d="M499,-274.75C499,-267.8 499,-257.85 499,-249.13"/>
<polygon fill="#63b8ff" stroke="#63b8ff" points="502.5,-249.09 499,-239.09 495.5,-249.09 502.5,-249.09"/>
</g>
<!-- Node8 -->
<g id="node8" class="node">
<title>Node8</title>
<g id="a_node8"><a xlink:href="json_8h.html" target="_top" xlink:title=" ">
<polygon fill="white" stroke="#666666" points="786.5,-184 709.5,-184 709.5,-165 786.5,-165 786.5,-184"/>
<text text-anchor="middle" x="748" y="-172" font-family="Helvetica,sans-Serif" font-size="10.00">ccf/ds/json.h</text>
</a>
</g>
</g>
<!-- Node7&#45;&gt;Node8 -->
<g id="edge8" class="edge">
<title>Node7&#45;&gt;Node8</title>
<path fill="none" stroke="#63b8ff" d="M659.03,-219.98C675.93,-211.54 702.06,-198.47 721.64,-188.68"/>
<polygon fill="#63b8ff" stroke="#63b8ff" points="723.28,-191.77 730.66,-184.17 720.15,-185.51 723.28,-191.77"/>
</g>
<!-- Node22 -->
<g id="node22" class="node">
<title>Node22</title>
<g id="a_node22"><a xlink:href="http__status_8h.html" target="_top" xlink:title=" ">
<polygon fill="white" stroke="#666666" points="691,-184 593,-184 593,-165 691,-165 691,-184"/>
<text text-anchor="middle" x="642" y="-172" font-family="Helvetica,sans-Serif" font-size="10.00">ccf/http_status.h</text>
</a>
</g>
</g>
<!-- Node7&#45;&gt;Node22 -->
<g id="edge26" class="edge">
<title>Node7&#45;&gt;Node22</title>
<path fill="none" stroke="#63b8ff" d="M642,-219.75C642,-212.8 642,-202.85 642,-194.13"/>
<polygon fill="#63b8ff" stroke="#63b8ff" points="645.5,-194.09 642,-184.09 638.5,-194.09 645.5,-194.09"/>
</g>
<!-- Node9 -->
<g id="node9" class="node">
<title>Node9</title>
<g id="a_node9"><a xlink:href="include_2ccf_2crypto_2base64_8h.html" target="_top" xlink:title=" ">
<polygon fill="white" stroke="#666666" points="1018,-74 906,-74 906,-55 1018,-55 1018,-74"/>
<text text-anchor="middle" x="962" y="-62" font-family="Helvetica,sans-Serif" font-size="10.00">ccf/crypto/base64.h</text>
</a>
</g>
</g>
<!-- Node8&#45;&gt;Node9 -->
<g id="edge9" class="edge">
<title>Node8&#45;&gt;Node9</title>
<path fill="none" stroke="#63b8ff" d="M765.15,-164.84C802.57,-145.96 891.75,-100.96 936.07,-78.59"/>
<polygon fill="#63b8ff" stroke="#63b8ff" points="937.71,-81.68 945.06,-74.05 934.56,-75.43 937.71,-81.68"/>
</g>
<!-- Node11 -->
<g id="node11" class="node">
<title>Node11</title>
<g id="a_node11"><a xlink:href="include_2ccf_2ds_2json__schema_8h.html" target="_top" xlink:title=" ">
<polygon fill="white" stroke="#666666" points="802.5,-129 681.5,-129 681.5,-110 802.5,-110 802.5,-129"/>
<text text-anchor="middle" x="742" y="-117" font-family="Helvetica,sans-Serif" font-size="10.00">ccf/ds/json_schema.h</text>
</a>
</g>
</g>
<!-- Node8&#45;&gt;Node11 -->
<g id="edge12" class="edge">
<title>Node8&#45;&gt;Node11</title>
<path fill="none" stroke="#63b8ff" d="M747.01,-164.75C746.22,-157.8 745.1,-147.85 744.11,-139.13"/>
<polygon fill="#63b8ff" stroke="#63b8ff" points="747.58,-138.63 742.97,-129.09 740.62,-139.42 747.58,-138.63"/>
</g>
<!-- Node19 -->
<g id="node19" class="node">
<title>Node19</title>
<g id="a_node19"><a xlink:title=" ">
<polygon fill="#e0e0e0" stroke="#999999" points="888.5,-74 809.5,-74 809.5,-55 888.5,-55 888.5,-74"/>
<text text-anchor="middle" x="849" y="-62" font-family="Helvetica,sans-Serif" font-size="10.00">fmt/format.h</text>
</a>
</g>
</g>
<!-- Node8&#45;&gt;Node19 -->
<g id="edge24" class="edge">
<title>Node8&#45;&gt;Node19</title>
<path fill="none" stroke="#63b8ff" d="M763.62,-164.98C777.29,-156.99 797.07,-144.03 811,-129 823.67,-115.34 834.18,-96.77 840.91,-83.25"/>
<polygon fill="#63b8ff" stroke="#63b8ff" points="844.15,-84.58 845.29,-74.05 837.83,-81.57 844.15,-84.58"/>
</g>
<!-- Node21 -->
<g id="node21" class="node">
<title>Node21</title>
<g id="a_node21"><a xlink:title=" ">
<polygon fill="#e0e0e0" stroke="#999999" points="663,-129 607,-129 607,-110 663,-110 663,-129"/>
<text text-anchor="middle" x="635" y="-117" font-family="Helvetica,sans-Serif" font-size="10.00">sstream</text>
</a>
</g>
</g>
<!-- Node8&#45;&gt;Node21 -->
<g id="edge25" class="edge">
<title>Node8&#45;&gt;Node21</title>
<path fill="none" stroke="#63b8ff" d="M729.84,-164.98C711.75,-156.5 683.72,-143.35 662.81,-133.54"/>
<polygon fill="#63b8ff" stroke="#63b8ff" points="664.03,-130.25 653.49,-129.17 661.05,-136.59 664.03,-130.25"/>
</g>
<!-- Node9&#45;&gt;Node4 -->
<g id="edge10" class="edge">
<title>Node9&#45;&gt;Node4</title>
<path fill="none" stroke="#63b8ff" d="M905.65,-55.95C902.73,-55.62 899.83,-55.3 897,-55 697.63,-34.13 642.46,-53.45 441.24,-18.88"/>
<polygon fill="#63b8ff" stroke="#63b8ff" points="441.69,-15.41 431.24,-17.14 440.49,-22.3 441.69,-15.41"/>
</g>
<!-- Node10 -->
<g id="node10" class="node">
<title>Node10</title>
<g id="a_node10"><a xlink:title=" ">
<polygon fill="#e0e0e0" stroke="#999999" points="995.5,-19 948.5,-19 948.5,0 995.5,0 995.5,-19"/>
<text text-anchor="middle" x="972" y="-7" font-family="Helvetica,sans-Serif" font-size="10.00">vector</text>
</a>
</g>
</g>
<!-- Node9&#45;&gt;Node10 -->
<g id="edge11" class="edge">
<title>Node9&#45;&gt;Node10</title>
<path fill="none" stroke="#63b8ff" d="M963.65,-54.75C964.96,-47.8 966.84,-37.85 968.48,-29.13"/>
<polygon fill="#63b8ff" stroke="#63b8ff" points="971.96,-29.56 970.38,-19.09 965.09,-28.27 971.96,-29.56"/>
</g>
<!-- Node12 -->
<g id="node12" class="node">
<title>Node12</title>
<g id="a_node12"><a xlink:href="nonstd_8h.html" target="_top" xlink:title=" ">
<polygon fill="white" stroke="#666666" points="663,-74 573,-74 573,-55 663,-55 663,-74"/>
<text text-anchor="middle" x="618" y="-62" font-family="Helvetica,sans-Serif" font-size="10.00">ccf/ds/nonstd.h</text>
</a>
</g>
</g>
<!-- Node11&#45;&gt;Node12 -->
<g id="edge13" class="edge">
<title>Node11&#45;&gt;Node12</title>
<path fill="none" stroke="#63b8ff" d="M722.08,-109.98C701.95,-101.38 670.62,-87.99 647.59,-78.15"/>
<polygon fill="#63b8ff" stroke="#63b8ff" points="648.86,-74.88 638.29,-74.17 646.1,-81.32 648.86,-74.88"/>
</g>
<!-- Node18 -->
<g id="node18" class="node">
<title>Node18</title>
<g id="a_node18"><a xlink:title=" ">
<polygon fill="#e0e0e0" stroke="#999999" points="517,-74 461,-74 461,-55 517,-55 517,-74"/>
<text text-anchor="middle" x="489" y="-62" font-family="Helvetica,sans-Serif" font-size="10.00">optional</text>
</a>
</g>
</g>
<!-- Node11&#45;&gt;Node18 -->
<g id="edge21" class="edge">
<title>Node11&#45;&gt;Node18</title>
<path fill="none" stroke="#63b8ff" d="M701.35,-109.98C653.3,-99.92 573.97,-83.3 527.07,-73.48"/>
<polygon fill="#63b8ff" stroke="#63b8ff" points="527.52,-69.99 517.02,-71.37 526.09,-76.84 527.52,-69.99"/>
</g>
<!-- Node11&#45;&gt;Node19 -->
<g id="edge22" class="edge">
<title>Node11&#45;&gt;Node19</title>
<path fill="none" stroke="#63b8ff" d="M759.19,-109.98C776.25,-101.54 802.63,-88.47 822.4,-78.68"/>
<polygon fill="#63b8ff" stroke="#63b8ff" points="824.09,-81.75 831.5,-74.17 820.98,-75.47 824.09,-81.75"/>
</g>
<!-- Node20 -->
<g id="node20" class="node">
<title>Node20</title>
<g id="a_node20"><a xlink:title=" ">
<polygon fill="#e0e0e0" stroke="#999999" points="791,-74 681,-74 681,-55 791,-55 791,-74"/>
<text text-anchor="middle" x="736" y="-62" font-family="Helvetica,sans-Serif" font-size="10.00">nlohmann/json.hpp</text>
</a>
</g>
</g>
<!-- Node11&#45;&gt;Node20 -->
<g id="edge23" class="edge">
<title>Node11&#45;&gt;Node20</title>
<path fill="none" stroke="#63b8ff" d="M741.01,-109.75C740.22,-102.8 739.1,-92.85 738.11,-84.13"/>
<polygon fill="#63b8ff" stroke="#63b8ff" points="741.58,-83.63 736.97,-74.09 734.62,-84.42 741.58,-83.63"/>
</g>
<!-- Node12&#45;&gt;Node4 -->
<g id="edge17" class="edge">
<title>Node12&#45;&gt;Node4</title>
<path fill="none" stroke="#63b8ff" d="M582.82,-54.95C548.9,-46.66 495.89,-33.55 441.2,-19.27"/>
<polygon fill="#63b8ff" stroke="#63b8ff" points="441.9,-15.84 431.33,-16.69 440.12,-22.61 441.9,-15.84"/>
</g>
<!-- Node12&#45;&gt;Node10 -->
<g id="edge20" class="edge">
<title>Node12&#45;&gt;Node10</title>
<path fill="none" stroke="#63b8ff" d="M663.08,-56.37C666.1,-55.91 669.09,-55.44 672,-55 768.57,-40.24 882.75,-23.5 938.28,-15.4"/>
<polygon fill="#63b8ff" stroke="#63b8ff" points="938.88,-18.85 948.27,-13.95 937.87,-11.93 938.88,-18.85"/>
</g>
<!-- Node13 -->
<g id="node13" class="node">
<title>Node13</title>
<g id="a_node13"><a xlink:title=" ">
<polygon fill="#e0e0e0" stroke="#999999" points="692,-19 628,-19 628,0 692,0 692,-19"/>
<text text-anchor="middle" x="660" y="-7" font-family="Helvetica,sans-Serif" font-size="10.00">algorithm</text>
</a>
</g>
</g>
<!-- Node12&#45;&gt;Node13 -->
<g id="edge14" class="edge">
<title>Node12&#45;&gt;Node13</title>
<path fill="none" stroke="#63b8ff" d="M624.94,-54.75C630.87,-47.26 639.57,-36.28 646.82,-27.13"/>
<polygon fill="#63b8ff" stroke="#63b8ff" points="649.73,-29.1 653.19,-19.09 644.24,-24.75 649.73,-29.1"/>
</g>
<!-- Node14 -->
<g id="node14" class="node">
<title>Node14</title>
<g id="a_node14"><a xlink:title=" ">
<polygon fill="#e0e0e0" stroke="#999999" points="752,-19 710,-19 710,0 752,0 752,-19"/>
<text text-anchor="middle" x="731" y="-7" font-family="Helvetica,sans-Serif" font-size="10.00">array</text>
</a>
</g>
</g>
<!-- Node12&#45;&gt;Node14 -->
<g id="edge15" class="edge">
<title>Node12&#45;&gt;Node14</title>
<path fill="none" stroke="#63b8ff" d="M636.16,-54.98C654.25,-46.5 682.28,-33.35 703.19,-23.54"/>
<polygon fill="#63b8ff" stroke="#63b8ff" points="704.95,-26.59 712.51,-19.17 701.97,-20.25 704.95,-26.59"/>
</g>
<!-- Node15 -->
<g id="node15" class="node">
<title>Node15</title>
<g id="a_node15"><a xlink:title=" ">
<polygon fill="#e0e0e0" stroke="#999999" points="819.5,-19 770.5,-19 770.5,0 819.5,0 819.5,-19"/>
<text text-anchor="middle" x="795" y="-7" font-family="Helvetica,sans-Serif" font-size="10.00">cctype</text>
</a>
</g>
</g>
<!-- Node12&#45;&gt;Node15 -->
<g id="edge16" class="edge">
<title>Node12&#45;&gt;Node15</title>
<path fill="none" stroke="#63b8ff" d="M646.44,-54.98C677.52,-45.68 727.33,-30.76 760.59,-20.8"/>
<polygon fill="#63b8ff" stroke="#63b8ff" points="761.77,-24.1 770.34,-17.88 759.76,-17.4 761.77,-24.1"/>
</g>
<!-- Node16 -->
<g id="node16" class="node">
<title>Node16</title>
<g id="a_node16"><a xlink:title=" ">
<polygon fill="#e0e0e0" stroke="#999999" points="522.5,-19 449.5,-19 449.5,0 522.5,0 522.5,-19"/>
<text text-anchor="middle" x="486" y="-7" font-family="Helvetica,sans-Serif" font-size="10.00">string_view</text>
</a>
</g>
</g>
<!-- Node12&#45;&gt;Node16 -->
<g id="edge18" class="edge">
<title>Node12&#45;&gt;Node16</title>
<path fill="none" stroke="#63b8ff" d="M596.79,-54.98C575.27,-46.34 541.72,-32.87 517.17,-23.02"/>
<polygon fill="#63b8ff" stroke="#63b8ff" points="518.18,-19.65 507.59,-19.17 515.57,-26.14 518.18,-19.65"/>
</g>
<!-- Node17 -->
<g id="node17" class="node">
<title>Node17</title>
<g id="a_node17"><a xlink:title=" ">
<polygon fill="#e0e0e0" stroke="#999999" points="609.5,-19 540.5,-19 540.5,0 609.5,0 609.5,-19"/>
<text text-anchor="middle" x="575" y="-7" font-family="Helvetica,sans-Serif" font-size="10.00">type_traits</text>
</a>
</g>
</g>
<!-- Node12&#45;&gt;Node17 -->
<g id="edge19" class="edge">
<title>Node12&#45;&gt;Node17</title>
<path fill="none" stroke="#63b8ff" d="M610.9,-54.75C604.83,-47.26 595.91,-36.28 588.49,-27.13"/>
<polygon fill="#63b8ff" stroke="#63b8ff" points="590.99,-24.65 581.97,-19.09 585.55,-29.06 590.99,-24.65"/>
</g>
<!-- Node24&#45;&gt;Node10 -->
<g id="edge36" class="edge">
<title>Node24&#45;&gt;Node10</title>
<path fill="none" stroke="#63b8ff" d="M1075.33,-109.86C1065.4,-97.23 1045.87,-73.25 1027,-55 1015.99,-44.36 1002.66,-33.52 991.88,-25.21"/>
<polygon fill="#63b8ff" stroke="#63b8ff" points="993.96,-22.4 983.88,-19.14 989.73,-27.97 993.96,-22.4"/>
</g>
<!-- Node25 -->
<g id="node25" class="node">
<title>Node25</title>
<g id="a_node25"><a xlink:href="serialized_8h.html" target="_top" xlink:title=" ">
<polygon fill="white" stroke="#666666" points="1161.5,-74 1074.5,-74 1074.5,-55 1161.5,-55 1161.5,-74"/>
<text text-anchor="middle" x="1118" y="-62" font-family="Helvetica,sans-Serif" font-size="10.00">ds/serialized.h</text>
</a>
</g>
</g>
<!-- Node24&#45;&gt;Node25 -->
<g id="edge29" class="edge">
<title>Node24&#45;&gt;Node25</title>
<path fill="none" stroke="#63b8ff" d="M1087.94,-109.75C1092.98,-102.34 1100.34,-91.5 1106.51,-82.41"/>
<polygon fill="#63b8ff" stroke="#63b8ff" points="1109.44,-84.33 1112.17,-74.09 1103.65,-80.39 1109.44,-84.33"/>
</g>
<!-- Node29 -->
<g id="node29" class="node">
<title>Node29</title>
<g id="a_node29"><a xlink:title=" ">
<polygon fill="#e0e0e0" stroke="#999999" points="1248.5,-74 1179.5,-74 1179.5,-55 1248.5,-55 1248.5,-74"/>
<text text-anchor="middle" x="1214" y="-62" font-family="Helvetica,sans-Serif" font-size="10.00">arpa/inet.h</text>
</a>
</g>
</g>
<!-- Node24&#45;&gt;Node29 -->
<g id="edge35" class="edge">
<title>Node24&#45;&gt;Node29</title>
<path fill="none" stroke="#63b8ff" d="M1103.21,-109.98C1124.73,-101.34 1158.28,-87.87 1182.83,-78.02"/>
<polygon fill="#63b8ff" stroke="#63b8ff" points="1184.43,-81.14 1192.41,-74.17 1181.82,-74.65 1184.43,-81.14"/>
</g>
<!-- Node25&#45;&gt;Node4 -->
<g id="edge33" class="edge">
<title>Node25&#45;&gt;Node4</title>
<path fill="none" stroke="#63b8ff" d="M1074.05,-59.11C1059.13,-57.69 1042.35,-56.19 1027,-55 769.71,-35.1 699.62,-61.11 441.29,-18.85"/>
<polygon fill="#63b8ff" stroke="#63b8ff" points="441.67,-15.36 431.23,-17.19 440.52,-22.27 441.67,-15.36"/>
</g>
<!-- Node25&#45;&gt;Node10 -->
<g id="edge34" class="edge">
<title>Node25&#45;&gt;Node10</title>
<path fill="none" stroke="#63b8ff" d="M1094.54,-54.98C1070.42,-46.23 1032.63,-32.51 1005.4,-22.62"/>
<polygon fill="#63b8ff" stroke="#63b8ff" points="1006.48,-19.29 995.88,-19.17 1004.09,-25.87 1006.48,-19.29"/>
</g>
<!-- Node26 -->
<g id="node26" class="node">
<title>Node26</title>
<g id="a_node26"><a xlink:title=" ">
<polygon fill="#e0e0e0" stroke="#999999" points="1075,-19 1025,-19 1025,0 1075,0 1075,-19"/>
<text text-anchor="middle" x="1050" y="-7" font-family="Helvetica,sans-Serif" font-size="10.00">cstdint</text>
</a>
</g>
</g>
<!-- Node25&#45;&gt;Node26 -->
<g id="edge30" class="edge">
<title>Node25&#45;&gt;Node26</title>
<path fill="none" stroke="#63b8ff" d="M1107.07,-54.98C1096.92,-47.07 1081.58,-35.11 1069.35,-25.58"/>
<polygon fill="#63b8ff" stroke="#63b8ff" points="1071.16,-22.56 1061.12,-19.17 1066.86,-28.08 1071.16,-22.56"/>
</g>
<!-- Node27 -->
<g id="node27" class="node">
<title>Node27</title>
<g id="a_node27"><a xlink:title=" ">
<polygon fill="#e0e0e0" stroke="#999999" points="1143,-19 1093,-19 1093,0 1143,0 1143,-19"/>
<text text-anchor="middle" x="1118" y="-7" font-family="Helvetica,sans-Serif" font-size="10.00">cstring</text>
</a>
</g>
</g>
<!-- Node25&#45;&gt;Node27 -->
<g id="edge31" class="edge">
<title>Node25&#45;&gt;Node27</title>
<path fill="none" stroke="#63b8ff" d="M1118,-54.75C1118,-47.8 1118,-37.85 1118,-29.13"/>
<polygon fill="#63b8ff" stroke="#63b8ff" points="1121.5,-29.09 1118,-19.09 1114.5,-29.09 1121.5,-29.09"/>
</g>
<!-- Node28 -->
<g id="node28" class="node">
<title>Node28</title>
<g id="a_node28"><a xlink:title=" ">
<polygon fill="#e0e0e0" stroke="#999999" points="1226.5,-19 1161.5,-19 1161.5,0 1226.5,0 1226.5,-19"/>
<text text-anchor="middle" x="1194" y="-7" font-family="Helvetica,sans-Serif" font-size="10.00">stdexcept</text>
</a>
</g>
</g>
<!-- Node25&#45;&gt;Node28 -->
<g id="edge32" class="edge">
<title>Node25&#45;&gt;Node28</title>
<path fill="none" stroke="#63b8ff" d="M1130.21,-54.98C1141.78,-46.92 1159.38,-34.65 1173.16,-25.03"/>
<polygon fill="#63b8ff" stroke="#63b8ff" points="1175.37,-27.76 1181.57,-19.17 1171.36,-22.02 1175.37,-27.76"/>
</g>
<!-- Node30&#45;&gt;Node4 -->
<g id="edge44" class="edge">
<title>Node30&#45;&gt;Node4</title>
<path fill="none" stroke="#63b8ff" d="M156.34,-164.56C157.32,-151.12 161.04,-125.61 175,-110 229.13,-49.48 326.26,-24.57 376.67,-15.33"/>
<polygon fill="#63b8ff" stroke="#63b8ff" points="377.43,-18.75 386.68,-13.59 376.23,-11.85 377.43,-18.75"/>
</g>
<!-- Node30&#45;&gt;Node18 -->
<g id="edge43" class="edge">
<title>Node30&#45;&gt;Node18</title>
<path fill="none" stroke="#63b8ff" d="M184.27,-166.95C187.22,-166.28 190.17,-165.62 193,-165 269.28,-148.26 291.36,-155.03 365,-129 402.24,-115.83 442.43,-93.62 466.65,-79.27"/>
<polygon fill="#63b8ff" stroke="#63b8ff" points="468.64,-82.15 475.41,-74 465.04,-76.15 468.64,-82.15"/>
</g>
<!-- Node31 -->
<g id="node31" class="node">
<title>Node31</title>
<g id="a_node31"><a xlink:href="grpc__status_8h.html" target="_top" xlink:title=" ">
<polygon fill="white" stroke="#666666" points="356,-129 274,-129 274,-110 356,-110 356,-129"/>
<text text-anchor="middle" x="315" y="-117" font-family="Helvetica,sans-Serif" font-size="10.00">grpc_status.h</text>
</a>
</g>
</g>
<!-- Node30&#45;&gt;Node31 -->
<g id="edge38" class="edge">
<title>Node30&#45;&gt;Node31</title>
<path fill="none" stroke="#63b8ff" d="M181.55,-164.98C208.12,-156.13 249.94,-142.19 279.67,-132.28"/>
<polygon fill="#63b8ff" stroke="#63b8ff" points="280.87,-135.56 289.25,-129.08 278.66,-128.92 280.87,-135.56"/>
</g>
<!-- Node32 -->
<g id="node32" class="node">
<title>Node32</title>
<g id="a_node32"><a xlink:title=" ">
<polygon fill="#e0e0e0" stroke="#999999" points="255.5,-129 184.5,-129 184.5,-110 255.5,-110 255.5,-129"/>
<text text-anchor="middle" x="220" y="-117" font-family="Helvetica,sans-Serif" font-size="10.00">status.pb.h</text>
</a>
</g>
</g>
<!-- Node30&#45;&gt;Node32 -->
<g id="edge42" class="edge">
<title>Node30&#45;&gt;Node32</title>
<path fill="none" stroke="#63b8ff" d="M166.28,-164.98C175.84,-157.07 190.28,-145.11 201.78,-135.58"/>
<polygon fill="#63b8ff" stroke="#63b8ff" points="204.06,-138.24 209.53,-129.17 199.6,-132.85 204.06,-138.24"/>
</g>
<!-- Node31&#45;&gt;Node2 -->
<g id="edge40" class="edge">
<title>Node31&#45;&gt;Node2</title>
<path fill="none" stroke="#63b8ff" d="M274.67,-109.98C231.16,-100.8 161.8,-86.15 114.65,-76.19"/>
<polygon fill="#63b8ff" stroke="#63b8ff" points="115.15,-72.72 104.64,-74.08 113.7,-79.57 115.15,-72.72"/>
</g>
<!-- Node31&#45;&gt;Node4 -->
<g id="edge41" class="edge">
<title>Node31&#45;&gt;Node4</title>
<path fill="none" stroke="#63b8ff" d="M315.61,-109.79C316.94,-96.64 321.11,-71.51 334,-55 345.16,-40.71 362.29,-30.05 377.37,-22.75"/>
<polygon fill="#63b8ff" stroke="#63b8ff" points="379.23,-25.75 386.89,-18.44 376.34,-19.38 379.23,-25.75"/>
</g>
<!-- Node31&#45;&gt;Node6 -->
<g id="edge39" class="edge">
<title>Node31&#45;&gt;Node6</title>
<path fill="none" stroke="#63b8ff" d="M327.53,-109.98C339.4,-101.92 357.46,-89.65 371.61,-80.03"/>
<polygon fill="#63b8ff" stroke="#63b8ff" points="373.94,-82.69 380.24,-74.17 370,-76.9 373.94,-82.69"/>
</g>
<!-- Node33&#45;&gt;Node2 -->
<g id="edge47" class="edge">
<title>Node33&#45;&gt;Node2</title>
<path fill="none" stroke="#63b8ff" d="M373.08,-227.41C310.75,-224.39 158.81,-214.06 119,-184 102.07,-171.22 80.52,-113.86 70.14,-83.89"/>
<polygon fill="#63b8ff" stroke="#63b8ff" points="73.38,-82.55 66.85,-74.21 66.76,-84.81 73.38,-82.55"/>
</g>
<!-- Node33&#45;&gt;Node4 -->
<g id="edge51" class="edge">
<title>Node33&#45;&gt;Node4</title>
<path fill="none" stroke="#63b8ff" d="M416.82,-219.89C430.98,-212.01 451.1,-199.27 465,-184 502.63,-142.66 512,-128.12 526,-74 528.12,-65.82 530.79,-61.95 526,-55 520.9,-47.6 473.55,-31.19 440.68,-20.5"/>
<polygon fill="#63b8ff" stroke="#63b8ff" points="441.6,-17.12 431,-17.38 439.45,-23.78 441.6,-17.12"/>
</g>
<!-- Node33&#45;&gt;Node6 -->
<g id="edge46" class="edge">
<title>Node33&#45;&gt;Node6</title>
<path fill="none" stroke="#63b8ff" d="M408.48,-219.85C416.05,-211.47 426.6,-198.01 431,-184 433.53,-175.94 432.53,-173.3 431,-165 425.51,-135.25 411.52,-102.89 402.13,-83.4"/>
<polygon fill="#63b8ff" stroke="#63b8ff" points="405.17,-81.64 397.6,-74.24 398.89,-84.75 405.17,-81.64"/>
</g>
<!-- Node33&#45;&gt;Node18 -->
<g id="edge50" class="edge">
<title>Node33&#45;&gt;Node18</title>
<path fill="none" stroke="#63b8ff" d="M411.66,-219.77C421.94,-211.55 436.69,-198.36 446,-184 466.76,-151.97 479.19,-108.59 485,-84.19"/>
<polygon fill="#63b8ff" stroke="#63b8ff" points="488.48,-84.67 487.28,-74.14 481.66,-83.12 488.48,-84.67"/>
</g>
<!-- Node33&#45;&gt;Node30 -->
<g id="edge48" class="edge">
<title>Node33&#45;&gt;Node30</title>
<path fill="none" stroke="#63b8ff" d="M373.18,-222.86C335.46,-214.9 264.35,-199.8 194.17,-184.24"/>
<polygon fill="#63b8ff" stroke="#63b8ff" points="194.79,-180.79 184.27,-182.04 193.28,-187.62 194.79,-180.79"/>
</g>
<!-- Node34 -->
<g id="node34" class="node">
<title>Node34</title>
<g id="a_node34"><a xlink:title=" ">
<polygon fill="#e0e0e0" stroke="#999999" points="353.5,-184 202.5,-184 202.5,-165 353.5,-165 353.5,-184"/>
<text text-anchor="middle" x="278" y="-172" font-family="Helvetica,sans-Serif" font-size="10.00">google/protobuf/empty.pb.h</text>
</a>
</g>
</g>
<!-- Node33&#45;&gt;Node34 -->
<g id="edge49" class="edge">
<title>Node33&#45;&gt;Node34</title>
<path fill="none" stroke="#63b8ff" d="M380.4,-219.98C360.68,-211.42 330.05,-198.11 307.42,-188.28"/>
<polygon fill="#63b8ff" stroke="#63b8ff" points="308.52,-184.94 297.96,-184.17 305.74,-191.37 308.52,-184.94"/>
</g>
<!-- Node35 -->
<g id="node35" class="node">
<title>Node35</title>
<g id="a_node35"><a xlink:title=" ">
<polygon fill="#e0e0e0" stroke="#999999" points="422.5,-184 371.5,-184 371.5,-165 422.5,-165 422.5,-184"/>
<text text-anchor="middle" x="397" y="-172" font-family="Helvetica,sans-Serif" font-size="10.00">variant</text>
</a>
</g>
</g>
<!-- Node33&#45;&gt;Node35 -->
<g id="edge52" class="edge">
<title>Node33&#45;&gt;Node35</title>
<path fill="none" stroke="#63b8ff" d="M399.5,-219.75C399.11,-212.8 398.55,-202.85 398.05,-194.13"/>
<polygon fill="#63b8ff" stroke="#63b8ff" points="401.55,-193.88 397.49,-184.09 394.56,-194.27 401.55,-193.88"/>
</g>
</g>
</svg>
